<?xml version="1.0" encoding="utf-8" standalone="no"?>
<!DOCTYPE svg PUBLIC "-//W3C//DTD SVG 1.1//EN"
  "http://www.w3.org/Graphics/SVG/1.1/DTD/svg11.dtd">
<!-- Created with matplotlib (https://matplotlib.org/) -->
<svg height="432pt" version="1.1" viewBox="0 0 360 432" width="360pt" xmlns="http://www.w3.org/2000/svg" xmlns:xlink="http://www.w3.org/1999/xlink">
 <defs>
  <style type="text/css">
*{stroke-linecap:butt;stroke-linejoin:round;}
  </style>
 </defs>
 <g id="figure_1">
  <g id="patch_1">
   <path d="M 0 432 
L 360 432 
L 360 0 
L 0 0 
z
" style="fill:#ffffff;"/>
  </g>
  <g id="axes_1">
   <g id="line2d_1">
    <path clip-path="url(#p808197ebe8)" d="M 57.681818 85.58069 
L 311.318182 85.58069 
" style="fill:none;stroke:#a6a6a6;stroke-linecap:round;stroke-width:10;"/>
   </g>
   <g id="line2d_2">
    <path clip-path="url(#p808197ebe8)" d="M 57.681818 85.58069 
L 311.318182 85.58069 
" style="fill:none;stroke:#4d4d4d;stroke-linecap:round;stroke-width:5;"/>
   </g>
   <g id="line2d_3">
    <defs>
     <path d="M 0 11 
C 2.917234 11 5.715379 9.840971 7.778175 7.778175 
C 9.840971 5.715379 11 2.917234 11 0 
C 11 -2.917234 9.840971 -5.715379 7.778175 -7.778175 
C 5.715379 -9.840971 2.917234 -11 0 -11 
C -2.917234 -11 -5.715379 -9.840971 -7.778175 -7.778175 
C -9.840971 -5.715379 -11 -2.917234 -11 0 
C -11 2.917234 -9.840971 5.715379 -7.778175 7.778175 
C -5.715379 9.840971 -2.917234 11 0 11 
z
" id="m9775b91671" style="stroke:#a6a6a6;stroke-width:3;"/>
    </defs>
    <g clip-path="url(#p808197ebe8)">
     <use style="fill:#4d4d4d;stroke:#a6a6a6;stroke-width:3;" x="184.5" xlink:href="#m9775b91671" y="85.58069"/>
    </g>
   </g>
   <g id="line2d_4">
    <defs>
     <path d="M 0 11 
C 2.917234 11 5.715379 9.840971 7.778175 7.778175 
C 9.840971 5.715379 11 2.917234 11 0 
C 11 -2.917234 9.840971 -5.715379 7.778175 -7.778175 
C 5.715379 -9.840971 2.917234 -11 0 -11 
C -2.917234 -11 -5.715379 -9.840971 -7.778175 -7.778175 
C -9.840971 -5.715379 -11 -2.917234 -11 0 
C -11 2.917234 -9.840971 5.715379 -7.778175 7.778175 
C -5.715379 9.840971 -2.917234 11 0 11 
z
" id="m46820b5fcd" style="stroke:#4d4d4d;stroke-width:3;"/>
    </defs>
    <g clip-path="url(#p808197ebe8)">
     <use style="fill:#ffcc00;stroke:#4d4d4d;stroke-width:3;" x="235.227273" xlink:href="#m46820b5fcd" y="85.58069"/>
    </g>
   </g>
   <g id="text_1">
    <!-- 70/50 -->
    <defs>
     <path d="M 4.25 57.859375 
L 4.25 70.609375 
L 51.171875 70.609375 
L 51.171875 60.640625 
Q 45.359375 54.9375 39.34375 44.234375 
Q 33.34375 33.546875 30.1875 21.5 
Q 27.046875 9.46875 27.09375 0 
L 13.875 0 
Q 14.203125 14.84375 19.984375 30.265625 
Q 25.78125 45.703125 35.453125 57.859375 
z
" id="Arial-BoldMT-55"/>
     <path d="M 27.4375 71.875 
Q 37.84375 71.875 43.703125 64.453125 
Q 50.6875 55.671875 50.6875 35.296875 
Q 50.6875 14.984375 43.65625 6.109375 
Q 37.84375 -1.21875 27.4375 -1.21875 
Q 17 -1.21875 10.59375 6.8125 
Q 4.203125 14.84375 4.203125 35.453125 
Q 4.203125 55.671875 11.234375 64.546875 
Q 17.046875 71.875 27.4375 71.875 
z
M 27.4375 60.5 
Q 24.953125 60.5 23 58.90625 
Q 21.046875 57.328125 19.96875 53.21875 
Q 18.5625 47.90625 18.5625 35.296875 
Q 18.5625 22.703125 19.828125 17.984375 
Q 21.09375 13.28125 23.015625 11.71875 
Q 24.953125 10.15625 27.4375 10.15625 
Q 29.9375 10.15625 31.890625 11.734375 
Q 33.84375 13.328125 34.90625 17.4375 
Q 36.328125 22.703125 36.328125 35.296875 
Q 36.328125 47.90625 35.0625 52.609375 
Q 33.796875 57.328125 31.859375 58.90625 
Q 29.9375 60.5 27.4375 60.5 
z
" id="Arial-BoldMT-48"/>
     <path d="M -0.140625 -1.21875 
L 17.578125 72.796875 
L 27.875 72.796875 
L 9.96875 -1.21875 
z
" id="Arial-BoldMT-47"/>
     <path d="M 4.4375 18.40625 
L 18.109375 19.828125 
Q 18.703125 15.1875 21.578125 12.46875 
Q 24.46875 9.765625 28.21875 9.765625 
Q 32.515625 9.765625 35.5 13.25 
Q 38.484375 16.75 38.484375 23.78125 
Q 38.484375 30.375 35.515625 33.671875 
Q 32.5625 36.96875 27.828125 36.96875 
Q 21.921875 36.96875 17.234375 31.734375 
L 6.109375 33.34375 
L 13.140625 70.609375 
L 49.421875 70.609375 
L 49.421875 57.765625 
L 23.53125 57.765625 
L 21.390625 45.609375 
Q 25.984375 47.90625 30.765625 47.90625 
Q 39.890625 47.90625 46.234375 41.265625 
Q 52.59375 34.625 52.59375 24.03125 
Q 52.59375 15.1875 47.46875 8.25 
Q 40.484375 -1.21875 28.078125 -1.21875 
Q 18.171875 -1.21875 11.921875 4.09375 
Q 5.671875 9.421875 4.4375 18.40625 
z
" id="Arial-BoldMT-53"/>
    </defs>
    <g style="fill:#4d4d4d;" transform="translate(215.209773 72.084414)scale(0.16 -0.16)">
     <use xlink:href="#Arial-BoldMT-55"/>
     <use x="55.615234" xlink:href="#Arial-BoldMT-48"/>
     <use x="111.230469" xlink:href="#Arial-BoldMT-47"/>
     <use x="139.013672" xlink:href="#Arial-BoldMT-53"/>
     <use x="194.628906" xlink:href="#Arial-BoldMT-48"/>
    </g>
   </g>
   <g id="text_2">
    <!-- Committed -->
    <defs>
     <path d="M 53.078125 26.3125 
L 67.09375 21.875 
Q 63.875 10.15625 56.375 4.46875 
Q 48.875 -1.21875 37.359375 -1.21875 
Q 23.09375 -1.21875 13.90625 8.515625 
Q 4.734375 18.265625 4.734375 35.15625 
Q 4.734375 53.03125 13.953125 62.90625 
Q 23.1875 72.796875 38.234375 72.796875 
Q 51.375 72.796875 59.578125 65.046875 
Q 64.453125 60.453125 66.890625 51.859375 
L 52.59375 48.4375 
Q 51.3125 54 47.28125 57.21875 
Q 43.265625 60.453125 37.5 60.453125 
Q 29.546875 60.453125 24.578125 54.734375 
Q 19.625 49.03125 19.625 36.234375 
Q 19.625 22.65625 24.5 16.890625 
Q 29.390625 11.140625 37.203125 11.140625 
Q 42.96875 11.140625 47.109375 14.796875 
Q 51.265625 18.453125 53.078125 26.3125 
z
" id="Arial-BoldMT-67"/>
     <path d="M 4 26.65625 
Q 4 33.5 7.375 39.890625 
Q 10.75 46.296875 16.921875 49.65625 
Q 23.09375 53.03125 30.71875 53.03125 
Q 42.484375 53.03125 50 45.390625 
Q 57.515625 37.75 57.515625 26.078125 
Q 57.515625 14.3125 49.921875 6.5625 
Q 42.328125 -1.171875 30.8125 -1.171875 
Q 23.6875 -1.171875 17.21875 2.046875 
Q 10.75 5.28125 7.375 11.5 
Q 4 17.71875 4 26.65625 
z
M 18.0625 25.921875 
Q 18.0625 18.21875 21.71875 14.109375 
Q 25.390625 10.015625 30.765625 10.015625 
Q 36.140625 10.015625 39.765625 14.109375 
Q 43.40625 18.21875 43.40625 26.03125 
Q 43.40625 33.640625 39.765625 37.734375 
Q 36.140625 41.84375 30.765625 41.84375 
Q 25.390625 41.84375 21.71875 37.734375 
Q 18.0625 33.640625 18.0625 25.921875 
z
" id="Arial-BoldMT-111"/>
     <path d="M 6.15625 51.859375 
L 18.796875 51.859375 
L 18.796875 44.78125 
Q 25.59375 53.03125 34.96875 53.03125 
Q 39.9375 53.03125 43.59375 50.96875 
Q 47.265625 48.921875 49.609375 44.78125 
Q 53.03125 48.921875 56.984375 50.96875 
Q 60.9375 53.03125 65.4375 53.03125 
Q 71.140625 53.03125 75.09375 50.703125 
Q 79.046875 48.390625 81 43.890625 
Q 82.421875 40.578125 82.421875 33.15625 
L 82.421875 0 
L 68.703125 0 
L 68.703125 29.640625 
Q 68.703125 37.359375 67.28125 39.59375 
Q 65.375 42.53125 61.421875 42.53125 
Q 58.546875 42.53125 56 40.765625 
Q 53.46875 39.015625 52.34375 35.625 
Q 51.21875 32.234375 51.21875 24.90625 
L 51.21875 0 
L 37.5 0 
L 37.5 28.421875 
Q 37.5 35.984375 36.765625 38.171875 
Q 36.03125 40.375 34.484375 41.453125 
Q 32.953125 42.53125 30.328125 42.53125 
Q 27.15625 42.53125 24.609375 40.8125 
Q 22.078125 39.109375 20.96875 35.890625 
Q 19.875 32.671875 19.875 25.203125 
L 19.875 0 
L 6.15625 0 
z
" id="Arial-BoldMT-109"/>
     <path d="M 7.171875 58.890625 
L 7.171875 71.578125 
L 20.90625 71.578125 
L 20.90625 58.890625 
z
M 7.171875 0 
L 7.171875 51.859375 
L 20.90625 51.859375 
L 20.90625 0 
z
" id="Arial-BoldMT-105"/>
     <path d="M 30.953125 51.859375 
L 30.953125 40.921875 
L 21.578125 40.921875 
L 21.578125 20.015625 
Q 21.578125 13.671875 21.84375 12.625 
Q 22.125 11.578125 23.078125 10.890625 
Q 24.03125 10.203125 25.390625 10.203125 
Q 27.296875 10.203125 30.90625 11.53125 
L 32.078125 0.875 
Q 27.296875 -1.171875 21.234375 -1.171875 
Q 17.53125 -1.171875 14.546875 0.0625 
Q 11.578125 1.3125 10.1875 3.296875 
Q 8.796875 5.28125 8.25 8.640625 
Q 7.8125 11.03125 7.8125 18.3125 
L 7.8125 40.921875 
L 1.515625 40.921875 
L 1.515625 51.859375 
L 7.8125 51.859375 
L 7.8125 62.15625 
L 21.578125 70.171875 
L 21.578125 51.859375 
z
" id="Arial-BoldMT-116"/>
     <path d="M 37.203125 16.5 
L 50.875 14.203125 
Q 48.25 6.6875 42.546875 2.75 
Q 36.859375 -1.171875 28.328125 -1.171875 
Q 14.796875 -1.171875 8.296875 7.671875 
Q 3.171875 14.75 3.171875 25.53125 
Q 3.171875 38.421875 9.90625 45.71875 
Q 16.65625 53.03125 26.953125 53.03125 
Q 38.53125 53.03125 45.21875 45.390625 
Q 51.90625 37.75 51.609375 21.96875 
L 17.234375 21.96875 
Q 17.390625 15.875 20.5625 12.46875 
Q 23.734375 9.078125 28.46875 9.078125 
Q 31.6875 9.078125 33.875 10.828125 
Q 36.078125 12.59375 37.203125 16.5 
z
M 37.984375 30.375 
Q 37.84375 36.328125 34.90625 39.421875 
Q 31.984375 42.53125 27.78125 42.53125 
Q 23.296875 42.53125 20.359375 39.265625 
Q 17.4375 35.984375 17.484375 30.375 
z
" id="Arial-BoldMT-101"/>
     <path d="M 54.734375 0 
L 42 0 
L 42 7.625 
Q 38.8125 3.171875 34.484375 1 
Q 30.171875 -1.171875 25.78125 -1.171875 
Q 16.84375 -1.171875 10.46875 6.03125 
Q 4.109375 13.234375 4.109375 26.125 
Q 4.109375 39.3125 10.296875 46.171875 
Q 16.5 53.03125 25.984375 53.03125 
Q 34.671875 53.03125 41.015625 45.796875 
L 41.015625 71.578125 
L 54.734375 71.578125 
z
M 18.109375 27.046875 
Q 18.109375 18.75 20.40625 15.046875 
Q 23.734375 9.671875 29.6875 9.671875 
Q 34.421875 9.671875 37.734375 13.6875 
Q 41.0625 17.71875 41.0625 25.734375 
Q 41.0625 34.671875 37.84375 38.59375 
Q 34.625 42.53125 29.59375 42.53125 
Q 24.703125 42.53125 21.40625 38.640625 
Q 18.109375 34.765625 18.109375 27.046875 
z
" id="Arial-BoldMT-100"/>
    </defs>
    <g style="fill:#4d4d4d;" transform="translate(57.681818 55.598295)scale(0.18 -0.18)">
     <use xlink:href="#Arial-BoldMT-67"/>
     <use x="72.216797" xlink:href="#Arial-BoldMT-111"/>
     <use x="133.300781" xlink:href="#Arial-BoldMT-109"/>
     <use x="222.216797" xlink:href="#Arial-BoldMT-109"/>
     <use x="311.132812" xlink:href="#Arial-BoldMT-105"/>
     <use x="338.916016" xlink:href="#Arial-BoldMT-116"/>
     <use x="372.216797" xlink:href="#Arial-BoldMT-116"/>
     <use x="405.517578" xlink:href="#Arial-BoldMT-101"/>
     <use x="461.132812" xlink:href="#Arial-BoldMT-100"/>
    </g>
   </g>
  </g>
  <g id="axes_2">
   <g id="line2d_5">
    <path clip-path="url(#p3630258004)" d="M 57.681818 153.062069 
L 311.318182 153.062069 
" style="fill:none;stroke:#a6a6a6;stroke-linecap:round;stroke-width:10;"/>
   </g>
   <g id="line2d_6">
    <path clip-path="url(#p3630258004)" d="M 57.681818 153.062069 
L 311.318182 153.062069 
" style="fill:none;stroke:#4d4d4d;stroke-linecap:round;stroke-width:5;"/>
   </g>
   <g id="line2d_7">
    <g clip-path="url(#p3630258004)">
     <use style="fill:#4d4d4d;stroke:#a6a6a6;stroke-width:3;" x="235.227273" xlink:href="#m9775b91671" y="153.062069"/>
    </g>
   </g>
   <g id="line2d_8">
    <g clip-path="url(#p3630258004)">
     <use style="fill:#ffcc00;stroke:#4d4d4d;stroke-width:3;" x="260.590909" xlink:href="#m46820b5fcd" y="153.062069"/>
    </g>
   </g>
   <g id="text_3">
    <!-- 80/70 -->
    <defs>
     <path d="M 16.015625 38.625 
Q 10.6875 40.875 8.265625 44.796875 
Q 5.859375 48.734375 5.859375 53.421875 
Q 5.859375 61.421875 11.453125 66.640625 
Q 17.046875 71.875 27.34375 71.875 
Q 37.546875 71.875 43.1875 66.640625 
Q 48.828125 61.421875 48.828125 53.421875 
Q 48.828125 48.4375 46.234375 44.546875 
Q 43.65625 40.671875 38.96875 38.625 
Q 44.921875 36.234375 48.015625 31.640625 
Q 51.125 27.046875 51.125 21.046875 
Q 51.125 11.140625 44.796875 4.9375 
Q 38.484375 -1.265625 27.984375 -1.265625 
Q 18.21875 -1.265625 11.71875 3.859375 
Q 4.046875 9.90625 4.046875 20.453125 
Q 4.046875 26.265625 6.921875 31.125 
Q 9.8125 35.984375 16.015625 38.625 
z
M 18.84375 52.4375 
Q 18.84375 48.34375 21.15625 46.046875 
Q 23.484375 43.75 27.34375 43.75 
Q 31.25 43.75 33.59375 46.0625 
Q 35.9375 48.390625 35.9375 52.484375 
Q 35.9375 56.34375 33.609375 58.65625 
Q 31.296875 60.984375 27.484375 60.984375 
Q 23.53125 60.984375 21.1875 58.640625 
Q 18.84375 56.296875 18.84375 52.4375 
z
M 17.578125 21.78125 
Q 17.578125 16.109375 20.484375 12.9375 
Q 23.390625 9.765625 27.734375 9.765625 
Q 31.984375 9.765625 34.765625 12.8125 
Q 37.546875 15.875 37.546875 21.625 
Q 37.546875 26.65625 34.71875 29.703125 
Q 31.890625 32.765625 27.546875 32.765625 
Q 22.515625 32.765625 20.046875 29.296875 
Q 17.578125 25.828125 17.578125 21.78125 
z
" id="Arial-BoldMT-56"/>
    </defs>
    <g style="fill:#4d4d4d;" transform="translate(240.573409 139.565793)scale(0.16 -0.16)">
     <use xlink:href="#Arial-BoldMT-56"/>
     <use x="55.615234" xlink:href="#Arial-BoldMT-48"/>
     <use x="111.230469" xlink:href="#Arial-BoldMT-47"/>
     <use x="139.013672" xlink:href="#Arial-BoldMT-55"/>
     <use x="194.628906" xlink:href="#Arial-BoldMT-48"/>
    </g>
   </g>
   <g id="text_4">
    <!-- Sole Account -->
    <defs>
     <path d="M 3.609375 23.296875 
L 17.671875 24.65625 
Q 18.953125 17.578125 22.828125 14.25 
Q 26.703125 10.9375 33.296875 10.9375 
Q 40.28125 10.9375 43.8125 13.890625 
Q 47.359375 16.84375 47.359375 20.796875 
Q 47.359375 23.34375 45.875 25.125 
Q 44.390625 26.90625 40.671875 28.21875 
Q 38.140625 29.109375 29.109375 31.34375 
Q 17.484375 34.234375 12.796875 38.421875 
Q 6.203125 44.34375 6.203125 52.828125 
Q 6.203125 58.296875 9.296875 63.0625 
Q 12.40625 67.828125 18.234375 70.3125 
Q 24.078125 72.796875 32.328125 72.796875 
Q 45.796875 72.796875 52.609375 66.890625 
Q 59.421875 60.984375 59.765625 51.125 
L 45.3125 50.484375 
Q 44.390625 56 41.328125 58.421875 
Q 38.28125 60.84375 32.171875 60.84375 
Q 25.875 60.84375 22.3125 58.25 
Q 20.015625 56.59375 20.015625 53.8125 
Q 20.015625 51.265625 22.171875 49.46875 
Q 24.90625 47.171875 35.453125 44.671875 
Q 46 42.1875 51.046875 39.515625 
Q 56.109375 36.859375 58.953125 32.25 
Q 61.8125 27.640625 61.8125 20.84375 
Q 61.8125 14.703125 58.390625 9.328125 
Q 54.984375 3.953125 48.734375 1.34375 
Q 42.484375 -1.265625 33.15625 -1.265625 
Q 19.578125 -1.265625 12.296875 5 
Q 5.03125 11.28125 3.609375 23.296875 
z
" id="Arial-BoldMT-83"/>
     <path d="M 7.171875 0 
L 7.171875 71.578125 
L 20.90625 71.578125 
L 20.90625 0 
z
" id="Arial-BoldMT-108"/>
     <path id="Arial-BoldMT-32"/>
     <path d="M 71.828125 0 
L 56.109375 0 
L 49.859375 16.265625 
L 21.234375 16.265625 
L 15.328125 0 
L 0 0 
L 27.875 71.578125 
L 43.171875 71.578125 
z
M 45.21875 28.328125 
L 35.359375 54.890625 
L 25.6875 28.328125 
z
" id="Arial-BoldMT-65"/>
     <path d="M 52.390625 36.53125 
L 38.875 34.078125 
Q 38.1875 38.140625 35.765625 40.1875 
Q 33.34375 42.234375 29.5 42.234375 
Q 24.359375 42.234375 21.3125 38.6875 
Q 18.265625 35.15625 18.265625 26.859375 
Q 18.265625 17.625 21.359375 13.8125 
Q 24.46875 10.015625 29.6875 10.015625 
Q 33.59375 10.015625 36.078125 12.234375 
Q 38.578125 14.453125 39.59375 19.875 
L 53.078125 17.578125 
Q 50.984375 8.296875 45.015625 3.5625 
Q 39.0625 -1.171875 29.046875 -1.171875 
Q 17.671875 -1.171875 10.90625 6 
Q 4.15625 13.1875 4.15625 25.875 
Q 4.15625 38.71875 10.9375 45.875 
Q 17.71875 53.03125 29.296875 53.03125 
Q 38.765625 53.03125 44.359375 48.953125 
Q 49.953125 44.875 52.390625 36.53125 
z
" id="Arial-BoldMT-99"/>
     <path d="M 41.3125 0 
L 41.3125 7.765625 
Q 38.484375 3.609375 33.859375 1.21875 
Q 29.25 -1.171875 24.125 -1.171875 
Q 18.890625 -1.171875 14.734375 1.125 
Q 10.59375 3.421875 8.734375 7.5625 
Q 6.890625 11.71875 6.890625 19.046875 
L 6.890625 51.859375 
L 20.609375 51.859375 
L 20.609375 28.03125 
Q 20.609375 17.09375 21.359375 14.625 
Q 22.125 12.15625 24.125 10.71875 
Q 26.125 9.28125 29.203125 9.28125 
Q 32.71875 9.28125 35.5 11.203125 
Q 38.28125 13.140625 39.296875 15.984375 
Q 40.328125 18.84375 40.328125 29.984375 
L 40.328125 51.859375 
L 54.046875 51.859375 
L 54.046875 0 
z
" id="Arial-BoldMT-117"/>
     <path d="M 54.34375 0 
L 40.625 0 
L 40.625 26.46875 
Q 40.625 34.859375 39.75 37.328125 
Q 38.875 39.796875 36.890625 41.15625 
Q 34.90625 42.53125 32.125 42.53125 
Q 28.5625 42.53125 25.734375 40.578125 
Q 22.90625 38.625 21.84375 35.390625 
Q 20.796875 32.171875 20.796875 23.484375 
L 20.796875 0 
L 7.078125 0 
L 7.078125 51.859375 
L 19.828125 51.859375 
L 19.828125 44.234375 
Q 26.609375 53.03125 36.921875 53.03125 
Q 41.453125 53.03125 45.203125 51.390625 
Q 48.96875 49.75 50.890625 47.203125 
Q 52.828125 44.671875 53.578125 41.453125 
Q 54.34375 38.234375 54.34375 32.234375 
z
" id="Arial-BoldMT-110"/>
    </defs>
    <g style="fill:#4d4d4d;" transform="translate(57.681818 123.079675)scale(0.18 -0.18)">
     <use xlink:href="#Arial-BoldMT-83"/>
     <use x="66.699219" xlink:href="#Arial-BoldMT-111"/>
     <use x="127.783203" xlink:href="#Arial-BoldMT-108"/>
     <use x="155.566406" xlink:href="#Arial-BoldMT-101"/>
     <use x="211.181641" xlink:href="#Arial-BoldMT-32"/>
     <use x="238.917969" xlink:href="#Arial-BoldMT-65"/>
     <use x="311.134766" xlink:href="#Arial-BoldMT-99"/>
     <use x="366.75" xlink:href="#Arial-BoldMT-99"/>
     <use x="422.365234" xlink:href="#Arial-BoldMT-111"/>
     <use x="483.449219" xlink:href="#Arial-BoldMT-117"/>
     <use x="544.533203" xlink:href="#Arial-BoldMT-110"/>
     <use x="605.617188" xlink:href="#Arial-BoldMT-116"/>
    </g>
   </g>
  </g>
  <g id="axes_3">
   <g id="line2d_9">
    <path clip-path="url(#p093620774e)" d="M 57.681818 220.543448 
L 311.318182 220.543448 
" style="fill:none;stroke:#a6a6a6;stroke-linecap:round;stroke-width:10;"/>
   </g>
   <g id="line2d_10">
    <path clip-path="url(#p093620774e)" d="M 57.681818 220.543448 
L 311.318182 220.543448 
" style="fill:none;stroke:#4d4d4d;stroke-linecap:round;stroke-width:5;"/>
   </g>
   <g id="line2d_11">
    <g clip-path="url(#p093620774e)">
     <use style="fill:#4d4d4d;stroke:#a6a6a6;stroke-width:3;" x="159.136364" xlink:href="#m9775b91671" y="220.543448"/>
    </g>
   </g>
   <g id="line2d_12">
    <g clip-path="url(#p093620774e)">
     <use style="fill:#ffcc00;stroke:#4d4d4d;stroke-width:3;" x="197.181818" xlink:href="#m46820b5fcd" y="220.543448"/>
    </g>
   </g>
   <g id="text_5">
    <!-- 55/40 -->
    <defs>
     <path d="M 31.15625 0 
L 31.15625 14.40625 
L 1.859375 14.40625 
L 1.859375 26.421875 
L 32.90625 71.875 
L 44.4375 71.875 
L 44.4375 26.46875 
L 53.328125 26.46875 
L 53.328125 14.40625 
L 44.4375 14.40625 
L 44.4375 0 
z
M 31.15625 26.46875 
L 31.15625 50.921875 
L 14.703125 26.46875 
z
" id="Arial-BoldMT-52"/>
    </defs>
    <g style="fill:#4d4d4d;" transform="translate(177.164318 207.047172)scale(0.16 -0.16)">
     <use xlink:href="#Arial-BoldMT-53"/>
     <use x="55.615234" xlink:href="#Arial-BoldMT-53"/>
     <use x="111.230469" xlink:href="#Arial-BoldMT-47"/>
     <use x="139.013672" xlink:href="#Arial-BoldMT-52"/>
     <use x="194.628906" xlink:href="#Arial-BoldMT-48"/>
    </g>
   </g>
   <g id="text_6">
    <!-- Joint Account -->
    <defs>
     <path d="M 33.109375 71.578125 
L 47.515625 71.578125 
L 47.515625 26.265625 
Q 47.515625 17.390625 45.953125 12.59375 
Q 43.84375 6.34375 38.328125 2.5625 
Q 32.8125 -1.21875 23.78125 -1.21875 
Q 13.1875 -1.21875 7.46875 4.703125 
Q 1.765625 10.640625 1.703125 22.125 
L 15.328125 23.6875 
Q 15.578125 17.53125 17.140625 14.984375 
Q 19.484375 11.140625 24.265625 11.140625 
Q 29.109375 11.140625 31.109375 13.890625 
Q 33.109375 16.65625 33.109375 25.34375 
z
" id="Arial-BoldMT-74"/>
    </defs>
    <g style="fill:#4d4d4d;" transform="translate(57.681818 190.561054)scale(0.18 -0.18)">
     <use xlink:href="#Arial-BoldMT-74"/>
     <use x="55.615234" xlink:href="#Arial-BoldMT-111"/>
     <use x="116.699219" xlink:href="#Arial-BoldMT-105"/>
     <use x="144.482422" xlink:href="#Arial-BoldMT-110"/>
     <use x="205.566406" xlink:href="#Arial-BoldMT-116"/>
     <use x="238.867188" xlink:href="#Arial-BoldMT-32"/>
     <use x="266.603516" xlink:href="#Arial-BoldMT-65"/>
     <use x="338.820312" xlink:href="#Arial-BoldMT-99"/>
     <use x="394.435547" xlink:href="#Arial-BoldMT-99"/>
     <use x="450.050781" xlink:href="#Arial-BoldMT-111"/>
     <use x="511.134766" xlink:href="#Arial-BoldMT-117"/>
     <use x="572.21875" xlink:href="#Arial-BoldMT-110"/>
     <use x="633.302734" xlink:href="#Arial-BoldMT-116"/>
    </g>
   </g>
  </g>
  <g id="axes_4">
   <g id="line2d_13">
    <path clip-path="url(#p3f27ef37da)" d="M 57.681818 288.024828 
L 311.318182 288.024828 
" style="fill:none;stroke:#a6a6a6;stroke-linecap:round;stroke-width:10;"/>
   </g>
   <g id="line2d_14">
    <path clip-path="url(#p3f27ef37da)" d="M 57.681818 288.024828 
L 311.318182 288.024828 
" style="fill:none;stroke:#4d4d4d;stroke-linecap:round;stroke-width:5;"/>
   </g>
   <g id="line2d_15">
    <g clip-path="url(#p3f27ef37da)">
     <use style="fill:#4d4d4d;stroke:#a6a6a6;stroke-width:3;" x="108.409091" xlink:href="#m9775b91671" y="288.024828"/>
    </g>
   </g>
   <g id="line2d_16">
    <g clip-path="url(#p3f27ef37da)">
     <use style="fill:#ffcc00;stroke:#4d4d4d;stroke-width:3;" x="133.772727" xlink:href="#m46820b5fcd" y="288.024828"/>
    </g>
   </g>
   <g id="text_7">
    <!-- 30/20 -->
    <defs>
     <path d="M 3.765625 19 
L 17.046875 20.609375 
Q 17.671875 15.53125 20.453125 12.84375 
Q 23.25 10.15625 27.203125 10.15625 
Q 31.453125 10.15625 34.34375 13.375 
Q 37.25 16.609375 37.25 22.078125 
Q 37.25 27.25 34.46875 30.265625 
Q 31.6875 33.296875 27.6875 33.296875 
Q 25.046875 33.296875 21.390625 32.28125 
L 22.90625 43.453125 
Q 28.46875 43.3125 31.390625 45.875 
Q 34.328125 48.4375 34.328125 52.6875 
Q 34.328125 56.296875 32.171875 58.4375 
Q 30.03125 60.59375 26.46875 60.59375 
Q 22.953125 60.59375 20.453125 58.15625 
Q 17.96875 55.71875 17.4375 51.03125 
L 4.78125 53.171875 
Q 6.109375 59.671875 8.765625 63.546875 
Q 11.421875 67.4375 16.1875 69.65625 
Q 20.953125 71.875 26.859375 71.875 
Q 36.96875 71.875 43.0625 65.4375 
Q 48.09375 60.15625 48.09375 53.515625 
Q 48.09375 44.09375 37.796875 38.484375 
Q 43.953125 37.15625 47.625 32.5625 
Q 51.3125 27.984375 51.3125 21.484375 
Q 51.3125 12.0625 44.421875 5.421875 
Q 37.546875 -1.21875 27.296875 -1.21875 
Q 17.578125 -1.21875 11.171875 4.375 
Q 4.78125 9.96875 3.765625 19 
z
" id="Arial-BoldMT-51"/>
     <path d="M 50.59375 12.75 
L 50.59375 0 
L 2.484375 0 
Q 3.265625 7.234375 7.171875 13.703125 
Q 11.078125 20.171875 22.609375 30.859375 
Q 31.890625 39.5 33.984375 42.578125 
Q 36.8125 46.828125 36.8125 50.984375 
Q 36.8125 55.5625 34.34375 58.03125 
Q 31.890625 60.5 27.546875 60.5 
Q 23.25 60.5 20.703125 57.90625 
Q 18.171875 55.328125 17.78125 49.3125 
L 4.109375 50.6875 
Q 5.328125 62.015625 11.765625 66.9375 
Q 18.21875 71.875 27.875 71.875 
Q 38.484375 71.875 44.53125 66.15625 
Q 50.59375 60.453125 50.59375 51.953125 
Q 50.59375 47.125 48.859375 42.75 
Q 47.125 38.375 43.359375 33.59375 
Q 40.875 30.421875 34.375 24.453125 
Q 27.875 18.5 26.140625 16.546875 
Q 24.421875 14.59375 23.34375 12.75 
z
" id="Arial-BoldMT-50"/>
    </defs>
    <g style="fill:#4d4d4d;" transform="translate(113.755227 274.528552)scale(0.16 -0.16)">
     <use xlink:href="#Arial-BoldMT-51"/>
     <use x="55.615234" xlink:href="#Arial-BoldMT-48"/>
     <use x="111.230469" xlink:href="#Arial-BoldMT-47"/>
     <use x="139.013672" xlink:href="#Arial-BoldMT-50"/>
     <use x="194.628906" xlink:href="#Arial-BoldMT-48"/>
    </g>
   </g>
   <g id="text_8">
    <!-- Credit Card -->
    <defs>
     <path d="M 20.3125 0 
L 6.59375 0 
L 6.59375 51.859375 
L 19.34375 51.859375 
L 19.34375 44.484375 
Q 22.609375 49.703125 25.21875 51.359375 
Q 27.828125 53.03125 31.15625 53.03125 
Q 35.84375 53.03125 40.1875 50.4375 
L 35.9375 38.484375 
Q 32.46875 40.71875 29.5 40.71875 
Q 26.609375 40.71875 24.609375 39.125 
Q 22.609375 37.546875 21.453125 33.390625 
Q 20.3125 29.25 20.3125 16.015625 
z
" id="Arial-BoldMT-114"/>
     <path d="M 17.4375 36.03125 
L 4.984375 38.28125 
Q 7.078125 45.796875 12.203125 49.40625 
Q 17.328125 53.03125 27.4375 53.03125 
Q 36.625 53.03125 41.109375 50.859375 
Q 45.609375 48.6875 47.4375 45.34375 
Q 49.265625 42 49.265625 33.0625 
L 49.125 17.046875 
Q 49.125 10.203125 49.78125 6.953125 
Q 50.4375 3.71875 52.25 0 
L 38.671875 0 
Q 38.140625 1.375 37.359375 4.046875 
Q 37.015625 5.28125 36.859375 5.671875 
Q 33.34375 2.25 29.34375 0.53125 
Q 25.34375 -1.171875 20.796875 -1.171875 
Q 12.796875 -1.171875 8.171875 3.171875 
Q 3.5625 7.515625 3.5625 14.15625 
Q 3.5625 18.5625 5.65625 22 
Q 7.765625 25.4375 11.546875 27.265625 
Q 15.328125 29.109375 22.46875 30.46875 
Q 32.078125 32.28125 35.796875 33.84375 
L 35.796875 35.203125 
Q 35.796875 39.15625 33.84375 40.84375 
Q 31.890625 42.53125 26.46875 42.53125 
Q 22.796875 42.53125 20.75 41.09375 
Q 18.703125 39.65625 17.4375 36.03125 
z
M 35.796875 24.90625 
Q 33.15625 24.03125 27.4375 22.796875 
Q 21.734375 21.578125 19.96875 20.40625 
Q 17.28125 18.5 17.28125 15.578125 
Q 17.28125 12.703125 19.421875 10.59375 
Q 21.578125 8.5 24.90625 8.5 
Q 28.609375 8.5 31.984375 10.9375 
Q 34.46875 12.796875 35.25 15.484375 
Q 35.796875 17.234375 35.796875 22.171875 
z
" id="Arial-BoldMT-97"/>
    </defs>
    <g style="fill:#4d4d4d;" transform="translate(57.681818 258.042433)scale(0.18 -0.18)">
     <use xlink:href="#Arial-BoldMT-67"/>
     <use x="72.216797" xlink:href="#Arial-BoldMT-114"/>
     <use x="111.132812" xlink:href="#Arial-BoldMT-101"/>
     <use x="166.748047" xlink:href="#Arial-BoldMT-100"/>
     <use x="227.832031" xlink:href="#Arial-BoldMT-105"/>
     <use x="255.615234" xlink:href="#Arial-BoldMT-116"/>
     <use x="288.916016" xlink:href="#Arial-BoldMT-32"/>
     <use x="316.699219" xlink:href="#Arial-BoldMT-67"/>
     <use x="388.916016" xlink:href="#Arial-BoldMT-97"/>
     <use x="444.53125" xlink:href="#Arial-BoldMT-114"/>
     <use x="483.447266" xlink:href="#Arial-BoldMT-100"/>
    </g>
   </g>
  </g>
  <g id="axes_5">
   <g id="line2d_17">
    <path clip-path="url(#p79572e1601)" d="M 57.681818 355.506207 
L 311.318182 355.506207 
" style="fill:none;stroke:#a6a6a6;stroke-linecap:round;stroke-width:10;"/>
   </g>
   <g id="line2d_18">
    <path clip-path="url(#p79572e1601)" d="M 57.681818 355.506207 
L 311.318182 355.506207 
" style="fill:none;stroke:#4d4d4d;stroke-linecap:round;stroke-width:5;"/>
   </g>
   <g id="line2d_19">
    <g clip-path="url(#p79572e1601)">
     <use style="fill:#4d4d4d;stroke:#a6a6a6;stroke-width:3;" x="70.363636" xlink:href="#m9775b91671" y="355.506207"/>
    </g>
   </g>
   <g id="line2d_20">
    <g clip-path="url(#p79572e1601)">
     <use style="fill:#ffcc00;stroke:#4d4d4d;stroke-width:3;" x="116.018182" xlink:href="#m46820b5fcd" y="355.506207"/>
    </g>
   </g>
   <g id="text_9">
    <!-- 23/5 -->
    <g style="fill:#4d4d4d;" transform="translate(100.449432 342.009931)scale(0.16 -0.16)">
     <use xlink:href="#Arial-BoldMT-50"/>
     <use x="55.615234" xlink:href="#Arial-BoldMT-51"/>
     <use x="111.230469" xlink:href="#Arial-BoldMT-47"/>
     <use x="139.013672" xlink:href="#Arial-BoldMT-53"/>
    </g>
   </g>
   <g id="text_10">
    <!-- Mortgage -->
    <defs>
     <path d="M 7.078125 0 
L 7.078125 71.578125 
L 28.71875 71.578125 
L 41.703125 22.75 
L 54.546875 71.578125 
L 76.21875 71.578125 
L 76.21875 0 
L 62.796875 0 
L 62.796875 56.34375 
L 48.578125 0 
L 34.671875 0 
L 20.515625 56.34375 
L 20.515625 0 
z
" id="Arial-BoldMT-77"/>
     <path d="M 5.90625 -3.421875 
L 21.578125 -5.328125 
Q 21.96875 -8.0625 23.390625 -9.078125 
Q 25.34375 -10.546875 29.546875 -10.546875 
Q 34.90625 -10.546875 37.59375 -8.9375 
Q 39.40625 -7.859375 40.328125 -5.46875 
Q 40.96875 -3.765625 40.96875 0.828125 
L 40.96875 8.40625 
Q 34.8125 0 25.4375 0 
Q 14.984375 0 8.890625 8.84375 
Q 4.109375 15.828125 4.109375 26.21875 
Q 4.109375 39.265625 10.375 46.140625 
Q 16.65625 53.03125 25.984375 53.03125 
Q 35.59375 53.03125 41.84375 44.578125 
L 41.84375 51.859375 
L 54.6875 51.859375 
L 54.6875 5.328125 
Q 54.6875 -3.859375 53.171875 -8.390625 
Q 51.65625 -12.9375 48.921875 -15.515625 
Q 46.1875 -18.109375 41.625 -19.578125 
Q 37.0625 -21.046875 30.078125 -21.046875 
Q 16.890625 -21.046875 11.375 -16.53125 
Q 5.859375 -12.015625 5.859375 -5.078125 
Q 5.859375 -4.390625 5.90625 -3.421875 
z
M 18.171875 27 
Q 18.171875 18.75 21.359375 14.90625 
Q 24.5625 11.078125 29.25 11.078125 
Q 34.28125 11.078125 37.75 15.015625 
Q 41.21875 18.953125 41.21875 26.65625 
Q 41.21875 34.71875 37.890625 38.625 
Q 34.578125 42.53125 29.5 42.53125 
Q 24.5625 42.53125 21.359375 38.6875 
Q 18.171875 34.859375 18.171875 27 
z
" id="Arial-BoldMT-103"/>
    </defs>
    <g style="fill:#4d4d4d;" transform="translate(57.681818 325.287563)scale(0.18 -0.18)">
     <use xlink:href="#Arial-BoldMT-77"/>
     <use x="83.300781" xlink:href="#Arial-BoldMT-111"/>
     <use x="144.384766" xlink:href="#Arial-BoldMT-114"/>
     <use x="183.300781" xlink:href="#Arial-BoldMT-116"/>
     <use x="216.601562" xlink:href="#Arial-BoldMT-103"/>
     <use x="277.685547" xlink:href="#Arial-BoldMT-97"/>
     <use x="333.300781" xlink:href="#Arial-BoldMT-103"/>
     <use x="394.384766" xlink:href="#Arial-BoldMT-101"/>
    </g>
   </g>
  </g>
 </g>
 <defs>
  <clipPath id="p808197ebe8">
   <rect height="56.234483" width="279" x="45" y="51.84"/>
  </clipPath>
  <clipPath id="p3630258004">
   <rect height="56.234483" width="279" x="45" y="119.321379"/>
  </clipPath>
  <clipPath id="p093620774e">
   <rect height="56.234483" width="279" x="45" y="186.802759"/>
  </clipPath>
  <clipPath id="p3f27ef37da">
   <rect height="56.234483" width="279" x="45" y="254.284138"/>
  </clipPath>
  <clipPath id="p79572e1601">
   <rect height="56.234483" width="279" x="45" y="321.765517"/>
  </clipPath>
 </defs>
</svg>
