<?xml version="1.0" encoding="utf-8" standalone="no"?>
<!DOCTYPE svg PUBLIC "-//W3C//DTD SVG 1.1//EN"
  "http://www.w3.org/Graphics/SVG/1.1/DTD/svg11.dtd">
<!-- Created with matplotlib (https://matplotlib.org/) -->
<svg height="720pt" version="1.1" viewBox="0 0 720 720" width="720pt" xmlns="http://www.w3.org/2000/svg" xmlns:xlink="http://www.w3.org/1999/xlink">
 <defs>
  <style type="text/css">
*{stroke-linecap:butt;stroke-linejoin:round;}
  </style>
 </defs>
 <g id="figure_1">
  <g id="patch_1">
   <path d="M 0 720 
L 720 720 
L 720 0 
L 0 0 
z
" style="fill:#ffffff;"/>
  </g>
  <g id="axes_1">
   <g id="patch_2">
    <path d="M 123.025 609.657292 
L 590.815714 609.657292 
L 590.815714 131.358393 
L 123.025 131.358393 
z
" style="fill:#eaeaf2;"/>
   </g>
   <g id="matplotlib.axis_1">
    <g id="xtick_1">
     <g id="line2d_1">
      <path clip-path="url(#pa8cda2e46a)" d="M 179.713923 609.657292 
L 179.713923 131.358393 
" style="fill:none;stroke:#ffffff;stroke-linecap:round;"/>
     </g>
     <g id="text_1">
      <!-- 0 -->
      <defs>
       <path d="M 4.15625 35.296875 
Q 4.15625 48 6.765625 55.734375 
Q 9.375 63.484375 14.515625 67.671875 
Q 19.671875 71.875 27.484375 71.875 
Q 33.25 71.875 37.59375 69.546875 
Q 41.9375 67.234375 44.765625 62.859375 
Q 47.609375 58.5 49.21875 52.21875 
Q 50.828125 45.953125 50.828125 35.296875 
Q 50.828125 22.703125 48.234375 14.96875 
Q 45.65625 7.234375 40.5 3 
Q 35.359375 -1.21875 27.484375 -1.21875 
Q 17.140625 -1.21875 11.234375 6.203125 
Q 4.15625 15.140625 4.15625 35.296875 
z
M 13.1875 35.296875 
Q 13.1875 17.671875 17.3125 11.828125 
Q 21.4375 6 27.484375 6 
Q 33.546875 6 37.671875 11.859375 
Q 41.796875 17.71875 41.796875 35.296875 
Q 41.796875 52.984375 37.671875 58.78125 
Q 33.546875 64.59375 27.390625 64.59375 
Q 21.34375 64.59375 17.71875 59.46875 
Q 13.1875 52.9375 13.1875 35.296875 
z
" id="ArialMT-48"/>
      </defs>
      <g style="fill:#262626;" transform="translate(175.12615 630.967682)scale(0.165 -0.165)">
       <use xlink:href="#ArialMT-48"/>
      </g>
     </g>
    </g>
    <g id="xtick_2">
     <g id="line2d_2">
      <path clip-path="url(#pa8cda2e46a)" d="M 245.492109 609.657292 
L 245.492109 131.358393 
" style="fill:none;stroke:#ffffff;stroke-linecap:round;"/>
     </g>
     <g id="text_2">
      <!-- 10 -->
      <defs>
       <path d="M 37.25 0 
L 28.46875 0 
L 28.46875 56 
Q 25.296875 52.984375 20.140625 49.953125 
Q 14.984375 46.921875 10.890625 45.40625 
L 10.890625 53.90625 
Q 18.265625 57.375 23.78125 62.296875 
Q 29.296875 67.234375 31.59375 71.875 
L 37.25 71.875 
z
" id="ArialMT-49"/>
      </defs>
      <g style="fill:#262626;" transform="translate(236.316563 630.967682)scale(0.165 -0.165)">
       <use xlink:href="#ArialMT-49"/>
       <use x="55.615234" xlink:href="#ArialMT-48"/>
      </g>
     </g>
    </g>
    <g id="xtick_3">
     <g id="line2d_3">
      <path clip-path="url(#pa8cda2e46a)" d="M 311.270296 609.657292 
L 311.270296 131.358393 
" style="fill:none;stroke:#ffffff;stroke-linecap:round;"/>
     </g>
     <g id="text_3">
      <!-- 20 -->
      <defs>
       <path d="M 50.34375 8.453125 
L 50.34375 0 
L 3.03125 0 
Q 2.9375 3.171875 4.046875 6.109375 
Q 5.859375 10.9375 9.828125 15.625 
Q 13.8125 20.3125 21.34375 26.46875 
Q 33.015625 36.03125 37.109375 41.625 
Q 41.21875 47.21875 41.21875 52.203125 
Q 41.21875 57.421875 37.46875 61 
Q 33.734375 64.59375 27.734375 64.59375 
Q 21.390625 64.59375 17.578125 60.78125 
Q 13.765625 56.984375 13.71875 50.25 
L 4.6875 51.171875 
Q 5.609375 61.28125 11.65625 66.578125 
Q 17.71875 71.875 27.9375 71.875 
Q 38.234375 71.875 44.234375 66.15625 
Q 50.25 60.453125 50.25 52 
Q 50.25 47.703125 48.484375 43.546875 
Q 46.734375 39.40625 42.65625 34.8125 
Q 38.578125 30.21875 29.109375 22.21875 
Q 21.1875 15.578125 18.9375 13.203125 
Q 16.703125 10.84375 15.234375 8.453125 
z
" id="ArialMT-50"/>
      </defs>
      <g style="fill:#262626;" transform="translate(302.094749 630.967682)scale(0.165 -0.165)">
       <use xlink:href="#ArialMT-50"/>
       <use x="55.615234" xlink:href="#ArialMT-48"/>
      </g>
     </g>
    </g>
    <g id="xtick_4">
     <g id="line2d_4">
      <path clip-path="url(#pa8cda2e46a)" d="M 377.048482 609.657292 
L 377.048482 131.358393 
" style="fill:none;stroke:#ffffff;stroke-linecap:round;"/>
     </g>
     <g id="text_4">
      <!-- 30 -->
      <defs>
       <path d="M 4.203125 18.890625 
L 12.984375 20.0625 
Q 14.5 12.59375 18.140625 9.296875 
Q 21.78125 6 27 6 
Q 33.203125 6 37.46875 10.296875 
Q 41.75 14.59375 41.75 20.953125 
Q 41.75 27 37.796875 30.921875 
Q 33.84375 34.859375 27.734375 34.859375 
Q 25.25 34.859375 21.53125 33.890625 
L 22.515625 41.609375 
Q 23.390625 41.5 23.921875 41.5 
Q 29.546875 41.5 34.03125 44.421875 
Q 38.53125 47.359375 38.53125 53.46875 
Q 38.53125 58.296875 35.25 61.46875 
Q 31.984375 64.65625 26.8125 64.65625 
Q 21.6875 64.65625 18.265625 61.421875 
Q 14.84375 58.203125 13.875 51.765625 
L 5.078125 53.328125 
Q 6.6875 62.15625 12.390625 67.015625 
Q 18.109375 71.875 26.609375 71.875 
Q 32.46875 71.875 37.390625 69.359375 
Q 42.328125 66.84375 44.9375 62.5 
Q 47.5625 58.15625 47.5625 53.265625 
Q 47.5625 48.640625 45.0625 44.828125 
Q 42.578125 41.015625 37.703125 38.765625 
Q 44.046875 37.3125 47.5625 32.6875 
Q 51.078125 28.078125 51.078125 21.140625 
Q 51.078125 11.765625 44.234375 5.25 
Q 37.40625 -1.265625 26.953125 -1.265625 
Q 17.53125 -1.265625 11.296875 4.34375 
Q 5.078125 9.96875 4.203125 18.890625 
z
" id="ArialMT-51"/>
      </defs>
      <g style="fill:#262626;" transform="translate(367.872935 630.967682)scale(0.165 -0.165)">
       <use xlink:href="#ArialMT-51"/>
       <use x="55.615234" xlink:href="#ArialMT-48"/>
      </g>
     </g>
    </g>
    <g id="xtick_5">
     <g id="line2d_5">
      <path clip-path="url(#pa8cda2e46a)" d="M 442.826668 609.657292 
L 442.826668 131.358393 
" style="fill:none;stroke:#ffffff;stroke-linecap:round;"/>
     </g>
     <g id="text_5">
      <!-- 40 -->
      <defs>
       <path d="M 32.328125 0 
L 32.328125 17.140625 
L 1.265625 17.140625 
L 1.265625 25.203125 
L 33.9375 71.578125 
L 41.109375 71.578125 
L 41.109375 25.203125 
L 50.78125 25.203125 
L 50.78125 17.140625 
L 41.109375 17.140625 
L 41.109375 0 
z
M 32.328125 25.203125 
L 32.328125 57.46875 
L 9.90625 25.203125 
z
" id="ArialMT-52"/>
      </defs>
      <g style="fill:#262626;" transform="translate(433.651122 630.967682)scale(0.165 -0.165)">
       <use xlink:href="#ArialMT-52"/>
       <use x="55.615234" xlink:href="#ArialMT-48"/>
      </g>
     </g>
    </g>
    <g id="xtick_6">
     <g id="line2d_6">
      <path clip-path="url(#pa8cda2e46a)" d="M 508.604855 609.657292 
L 508.604855 131.358393 
" style="fill:none;stroke:#ffffff;stroke-linecap:round;"/>
     </g>
     <g id="text_6">
      <!-- 50 -->
      <defs>
       <path d="M 4.15625 18.75 
L 13.375 19.53125 
Q 14.40625 12.796875 18.140625 9.390625 
Q 21.875 6 27.15625 6 
Q 33.5 6 37.890625 10.78125 
Q 42.28125 15.578125 42.28125 23.484375 
Q 42.28125 31 38.0625 35.34375 
Q 33.84375 39.703125 27 39.703125 
Q 22.75 39.703125 19.328125 37.765625 
Q 15.921875 35.84375 13.96875 32.765625 
L 5.71875 33.84375 
L 12.640625 70.609375 
L 48.25 70.609375 
L 48.25 62.203125 
L 19.671875 62.203125 
L 15.828125 42.96875 
Q 22.265625 47.46875 29.34375 47.46875 
Q 38.71875 47.46875 45.15625 40.96875 
Q 51.609375 34.46875 51.609375 24.265625 
Q 51.609375 14.546875 45.953125 7.46875 
Q 39.0625 -1.21875 27.15625 -1.21875 
Q 17.390625 -1.21875 11.203125 4.25 
Q 5.03125 9.71875 4.15625 18.75 
z
" id="ArialMT-53"/>
      </defs>
      <g style="fill:#262626;" transform="translate(499.429308 630.967682)scale(0.165 -0.165)">
       <use xlink:href="#ArialMT-53"/>
       <use x="55.615234" xlink:href="#ArialMT-48"/>
      </g>
     </g>
    </g>
    <g id="xtick_7">
     <g id="line2d_7">
      <path clip-path="url(#pa8cda2e46a)" d="M 574.383041 609.657292 
L 574.383041 131.358393 
" style="fill:none;stroke:#ffffff;stroke-linecap:round;"/>
     </g>
     <g id="text_7">
      <!-- 60 -->
      <defs>
       <path d="M 49.75 54.046875 
L 41.015625 53.375 
Q 39.84375 58.546875 37.703125 60.890625 
Q 34.125 64.65625 28.90625 64.65625 
Q 24.703125 64.65625 21.53125 62.3125 
Q 17.390625 59.28125 14.984375 53.46875 
Q 12.59375 47.65625 12.5 36.921875 
Q 15.671875 41.75 20.265625 44.09375 
Q 24.859375 46.4375 29.890625 46.4375 
Q 38.671875 46.4375 44.84375 39.96875 
Q 51.03125 33.5 51.03125 23.25 
Q 51.03125 16.5 48.125 10.71875 
Q 45.21875 4.9375 40.140625 1.859375 
Q 35.0625 -1.21875 28.609375 -1.21875 
Q 17.625 -1.21875 10.6875 6.859375 
Q 3.765625 14.9375 3.765625 33.5 
Q 3.765625 54.25 11.421875 63.671875 
Q 18.109375 71.875 29.4375 71.875 
Q 37.890625 71.875 43.28125 67.140625 
Q 48.6875 62.40625 49.75 54.046875 
z
M 13.875 23.1875 
Q 13.875 18.65625 15.796875 14.5 
Q 17.71875 10.359375 21.1875 8.171875 
Q 24.65625 6 28.46875 6 
Q 34.03125 6 38.03125 10.484375 
Q 42.046875 14.984375 42.046875 22.703125 
Q 42.046875 30.125 38.078125 34.390625 
Q 34.125 38.671875 28.125 38.671875 
Q 22.171875 38.671875 18.015625 34.390625 
Q 13.875 30.125 13.875 23.1875 
z
" id="ArialMT-54"/>
      </defs>
      <g style="fill:#262626;" transform="translate(565.207494 630.967682)scale(0.165 -0.165)">
       <use xlink:href="#ArialMT-54"/>
       <use x="55.615234" xlink:href="#ArialMT-48"/>
      </g>
     </g>
    </g>
    <g id="text_8">
     <!-- total_bill -->
     <defs>
      <path d="M 25.78125 7.859375 
L 27.046875 0.09375 
Q 23.34375 -0.6875 20.40625 -0.6875 
Q 15.625 -0.6875 12.984375 0.828125 
Q 10.359375 2.34375 9.28125 4.8125 
Q 8.203125 7.28125 8.203125 15.1875 
L 8.203125 45.015625 
L 1.765625 45.015625 
L 1.765625 51.859375 
L 8.203125 51.859375 
L 8.203125 64.703125 
L 16.9375 69.96875 
L 16.9375 51.859375 
L 25.78125 51.859375 
L 25.78125 45.015625 
L 16.9375 45.015625 
L 16.9375 14.703125 
Q 16.9375 10.9375 17.40625 9.859375 
Q 17.875 8.796875 18.921875 8.15625 
Q 19.96875 7.515625 21.921875 7.515625 
Q 23.390625 7.515625 25.78125 7.859375 
z
" id="ArialMT-116"/>
      <path d="M 3.328125 25.921875 
Q 3.328125 40.328125 11.328125 47.265625 
Q 18.015625 53.03125 27.640625 53.03125 
Q 38.328125 53.03125 45.109375 46.015625 
Q 51.90625 39.015625 51.90625 26.65625 
Q 51.90625 16.65625 48.90625 10.90625 
Q 45.90625 5.171875 40.15625 2 
Q 34.421875 -1.171875 27.640625 -1.171875 
Q 16.75 -1.171875 10.03125 5.8125 
Q 3.328125 12.796875 3.328125 25.921875 
z
M 12.359375 25.921875 
Q 12.359375 15.96875 16.703125 11.015625 
Q 21.046875 6.0625 27.640625 6.0625 
Q 34.1875 6.0625 38.53125 11.03125 
Q 42.875 16.015625 42.875 26.21875 
Q 42.875 35.84375 38.5 40.796875 
Q 34.125 45.75 27.640625 45.75 
Q 21.046875 45.75 16.703125 40.8125 
Q 12.359375 35.890625 12.359375 25.921875 
z
" id="ArialMT-111"/>
      <path d="M 40.4375 6.390625 
Q 35.546875 2.25 31.03125 0.53125 
Q 26.515625 -1.171875 21.34375 -1.171875 
Q 12.796875 -1.171875 8.203125 3 
Q 3.609375 7.171875 3.609375 13.671875 
Q 3.609375 17.484375 5.34375 20.625 
Q 7.078125 23.78125 9.890625 25.6875 
Q 12.703125 27.59375 16.21875 28.5625 
Q 18.796875 29.25 24.03125 29.890625 
Q 34.671875 31.15625 39.703125 32.90625 
Q 39.75 34.71875 39.75 35.203125 
Q 39.75 40.578125 37.25 42.78125 
Q 33.890625 45.75 27.25 45.75 
Q 21.046875 45.75 18.09375 43.578125 
Q 15.140625 41.40625 13.71875 35.890625 
L 5.125 37.0625 
Q 6.296875 42.578125 8.984375 45.96875 
Q 11.671875 49.359375 16.75 51.1875 
Q 21.828125 53.03125 28.515625 53.03125 
Q 35.15625 53.03125 39.296875 51.46875 
Q 43.453125 49.90625 45.40625 47.53125 
Q 47.359375 45.171875 48.140625 41.546875 
Q 48.578125 39.3125 48.578125 33.453125 
L 48.578125 21.734375 
Q 48.578125 9.46875 49.140625 6.21875 
Q 49.703125 2.984375 51.375 0 
L 42.1875 0 
Q 40.828125 2.734375 40.4375 6.390625 
z
M 39.703125 26.03125 
Q 34.90625 24.078125 25.34375 22.703125 
Q 19.921875 21.921875 17.671875 20.9375 
Q 15.4375 19.96875 14.203125 18.09375 
Q 12.984375 16.21875 12.984375 13.921875 
Q 12.984375 10.40625 15.640625 8.0625 
Q 18.3125 5.71875 23.4375 5.71875 
Q 28.515625 5.71875 32.46875 7.9375 
Q 36.421875 10.15625 38.28125 14.015625 
Q 39.703125 17 39.703125 22.796875 
z
" id="ArialMT-97"/>
      <path d="M 6.390625 0 
L 6.390625 71.578125 
L 15.1875 71.578125 
L 15.1875 0 
z
" id="ArialMT-108"/>
      <path d="M -1.515625 -19.875 
L -1.515625 -13.53125 
L 56.734375 -13.53125 
L 56.734375 -19.875 
z
" id="ArialMT-95"/>
      <path d="M 14.703125 0 
L 6.546875 0 
L 6.546875 71.578125 
L 15.328125 71.578125 
L 15.328125 46.046875 
Q 20.90625 53.03125 29.546875 53.03125 
Q 34.328125 53.03125 38.59375 51.09375 
Q 42.875 49.171875 45.625 45.671875 
Q 48.390625 42.1875 49.953125 37.25 
Q 51.515625 32.328125 51.515625 26.703125 
Q 51.515625 13.375 44.921875 6.09375 
Q 38.328125 -1.171875 29.109375 -1.171875 
Q 19.921875 -1.171875 14.703125 6.5 
z
M 14.59375 26.3125 
Q 14.59375 17 17.140625 12.84375 
Q 21.296875 6.0625 28.375 6.0625 
Q 34.125 6.0625 38.328125 11.0625 
Q 42.53125 16.0625 42.53125 25.984375 
Q 42.53125 36.140625 38.5 40.96875 
Q 34.46875 45.796875 28.765625 45.796875 
Q 23 45.796875 18.796875 40.796875 
Q 14.59375 35.796875 14.59375 26.3125 
z
" id="ArialMT-98"/>
      <path d="M 6.640625 61.46875 
L 6.640625 71.578125 
L 15.4375 71.578125 
L 15.4375 61.46875 
z
M 6.640625 0 
L 6.640625 51.859375 
L 15.4375 51.859375 
L 15.4375 0 
z
" id="ArialMT-105"/>
     </defs>
     <g style="fill:#262626;" transform="translate(323.901607 651.13112)scale(0.18 -0.18)">
      <use xlink:href="#ArialMT-116"/>
      <use x="27.783203" xlink:href="#ArialMT-111"/>
      <use x="83.398438" xlink:href="#ArialMT-116"/>
      <use x="111.181641" xlink:href="#ArialMT-97"/>
      <use x="166.796875" xlink:href="#ArialMT-108"/>
      <use x="189.013672" xlink:href="#ArialMT-95"/>
      <use x="244.628906" xlink:href="#ArialMT-98"/>
      <use x="300.244141" xlink:href="#ArialMT-105"/>
      <use x="322.460938" xlink:href="#ArialMT-108"/>
      <use x="344.677734" xlink:href="#ArialMT-108"/>
     </g>
    </g>
   </g>
   <g id="matplotlib.axis_2">
    <g id="ytick_1">
     <g id="line2d_8">
      <path clip-path="url(#pa8cda2e46a)" d="M 123.025 579.35025 
L 590.815714 579.35025 
" style="fill:none;stroke:#ffffff;stroke-linecap:round;"/>
     </g>
     <g id="text_9">
      <!-- 0 -->
      <g style="fill:#262626;" transform="translate(104.349453 585.255445)scale(0.165 -0.165)">
       <use xlink:href="#ArialMT-48"/>
      </g>
     </g>
    </g>
    <g id="ytick_2">
     <g id="line2d_9">
      <path clip-path="url(#pa8cda2e46a)" d="M 123.025 503.407556 
L 590.815714 503.407556 
" style="fill:none;stroke:#ffffff;stroke-linecap:round;"/>
     </g>
     <g id="text_10">
      <!-- 2 -->
      <g style="fill:#262626;" transform="translate(104.349453 509.312751)scale(0.165 -0.165)">
       <use xlink:href="#ArialMT-50"/>
      </g>
     </g>
    </g>
    <g id="ytick_3">
     <g id="line2d_10">
      <path clip-path="url(#pa8cda2e46a)" d="M 123.025 427.464862 
L 590.815714 427.464862 
" style="fill:none;stroke:#ffffff;stroke-linecap:round;"/>
     </g>
     <g id="text_11">
      <!-- 4 -->
      <g style="fill:#262626;" transform="translate(104.349453 433.370058)scale(0.165 -0.165)">
       <use xlink:href="#ArialMT-52"/>
      </g>
     </g>
    </g>
    <g id="ytick_4">
     <g id="line2d_11">
      <path clip-path="url(#pa8cda2e46a)" d="M 123.025 351.522169 
L 590.815714 351.522169 
" style="fill:none;stroke:#ffffff;stroke-linecap:round;"/>
     </g>
     <g id="text_12">
      <!-- 6 -->
      <g style="fill:#262626;" transform="translate(104.349453 357.427364)scale(0.165 -0.165)">
       <use xlink:href="#ArialMT-54"/>
      </g>
     </g>
    </g>
    <g id="ytick_5">
     <g id="line2d_12">
      <path clip-path="url(#pa8cda2e46a)" d="M 123.025 275.579475 
L 590.815714 275.579475 
" style="fill:none;stroke:#ffffff;stroke-linecap:round;"/>
     </g>
     <g id="text_13">
      <!-- 8 -->
      <defs>
       <path d="M 17.671875 38.8125 
Q 12.203125 40.828125 9.5625 44.53125 
Q 6.9375 48.25 6.9375 53.421875 
Q 6.9375 61.234375 12.546875 66.546875 
Q 18.171875 71.875 27.484375 71.875 
Q 36.859375 71.875 42.578125 66.421875 
Q 48.296875 60.984375 48.296875 53.171875 
Q 48.296875 48.1875 45.671875 44.5 
Q 43.0625 40.828125 37.75 38.8125 
Q 44.34375 36.671875 47.78125 31.875 
Q 51.21875 27.09375 51.21875 20.453125 
Q 51.21875 11.28125 44.71875 5.03125 
Q 38.234375 -1.21875 27.640625 -1.21875 
Q 17.046875 -1.21875 10.546875 5.046875 
Q 4.046875 11.328125 4.046875 20.703125 
Q 4.046875 27.6875 7.59375 32.390625 
Q 11.140625 37.109375 17.671875 38.8125 
z
M 15.921875 53.71875 
Q 15.921875 48.640625 19.1875 45.40625 
Q 22.46875 42.1875 27.6875 42.1875 
Q 32.765625 42.1875 36.015625 45.375 
Q 39.265625 48.578125 39.265625 53.21875 
Q 39.265625 58.0625 35.90625 61.359375 
Q 32.5625 64.65625 27.59375 64.65625 
Q 22.5625 64.65625 19.234375 61.421875 
Q 15.921875 58.203125 15.921875 53.71875 
z
M 13.09375 20.65625 
Q 13.09375 16.890625 14.875 13.375 
Q 16.65625 9.859375 20.171875 7.921875 
Q 23.6875 6 27.734375 6 
Q 34.03125 6 38.125 10.046875 
Q 42.234375 14.109375 42.234375 20.359375 
Q 42.234375 26.703125 38.015625 30.859375 
Q 33.796875 35.015625 27.4375 35.015625 
Q 21.234375 35.015625 17.15625 30.90625 
Q 13.09375 26.8125 13.09375 20.65625 
z
" id="ArialMT-56"/>
      </defs>
      <g style="fill:#262626;" transform="translate(104.349453 281.484671)scale(0.165 -0.165)">
       <use xlink:href="#ArialMT-56"/>
      </g>
     </g>
    </g>
    <g id="ytick_6">
     <g id="line2d_13">
      <path clip-path="url(#pa8cda2e46a)" d="M 123.025 199.636782 
L 590.815714 199.636782 
" style="fill:none;stroke:#ffffff;stroke-linecap:round;"/>
     </g>
     <g id="text_14">
      <!-- 10 -->
      <g style="fill:#262626;" transform="translate(95.173906 205.541977)scale(0.165 -0.165)">
       <use xlink:href="#ArialMT-49"/>
       <use x="55.615234" xlink:href="#ArialMT-48"/>
      </g>
     </g>
    </g>
    <g id="text_15">
     <!-- tip -->
     <defs>
      <path d="M 6.59375 -19.875 
L 6.59375 51.859375 
L 14.59375 51.859375 
L 14.59375 45.125 
Q 17.4375 49.078125 21 51.046875 
Q 24.5625 53.03125 29.640625 53.03125 
Q 36.28125 53.03125 41.359375 49.609375 
Q 46.4375 46.1875 49.015625 39.953125 
Q 51.609375 33.734375 51.609375 26.3125 
Q 51.609375 18.359375 48.75 11.984375 
Q 45.90625 5.609375 40.453125 2.21875 
Q 35.015625 -1.171875 29 -1.171875 
Q 24.609375 -1.171875 21.109375 0.6875 
Q 17.625 2.546875 15.375 5.375 
L 15.375 -19.875 
z
M 14.546875 25.640625 
Q 14.546875 15.625 18.59375 10.84375 
Q 22.65625 6.0625 28.421875 6.0625 
Q 34.28125 6.0625 38.453125 11.015625 
Q 42.625 15.96875 42.625 26.375 
Q 42.625 36.28125 38.546875 41.203125 
Q 34.46875 46.140625 28.8125 46.140625 
Q 23.1875 46.140625 18.859375 40.890625 
Q 14.546875 35.640625 14.546875 25.640625 
z
" id="ArialMT-112"/>
     </defs>
     <g style="fill:#262626;" transform="translate(87.596406 380.012686)rotate(-90)scale(0.18 -0.18)">
      <use xlink:href="#ArialMT-116"/>
      <use x="27.783203" xlink:href="#ArialMT-105"/>
      <use x="50" xlink:href="#ArialMT-112"/>
     </g>
    </g>
   </g>
   <g id="PathCollection_1">
    <defs>
     <path d="M 0 3 
C 0.795609 3 1.55874 2.683901 2.12132 2.12132 
C 2.683901 1.55874 3 0.795609 3 0 
C 3 -0.795609 2.683901 -1.55874 2.12132 -2.12132 
C 1.55874 -2.683901 0.795609 -3 0 -3 
C -0.795609 -3 -1.55874 -2.683901 -2.12132 -2.12132 
C -2.683901 -1.55874 -3 -0.795609 -3 0 
C -3 0.795609 -2.683901 1.55874 -2.12132 2.12132 
C -1.55874 2.683901 -0.795609 3 0 3 
z
" id="m9bb9fc734c" style="stroke:#ffa500;stroke-opacity:0.8;"/>
    </defs>
    <g clip-path="url(#pa8cda2e46a)">
     <use style="fill:#ffa500;fill-opacity:0.8;stroke:#ffa500;stroke-opacity:0.8;" x="291.471062" xlink:href="#m9bb9fc734c" y="540.999189"/>
     <use style="fill:#ffa500;fill-opacity:0.8;stroke:#ffa500;stroke-opacity:0.8;" x="247.728568" xlink:href="#m9bb9fc734c" y="516.317814"/>
     <use style="fill:#ffa500;fill-opacity:0.8;stroke:#ffa500;stroke-opacity:0.8;" x="317.913893" xlink:href="#m9bb9fc734c" y="446.450536"/>
     <use style="fill:#ffa500;fill-opacity:0.8;stroke:#ffa500;stroke-opacity:0.8;" x="335.476668" xlink:href="#m9bb9fc734c" y="453.665092"/>
     <use style="fill:#ffa500;fill-opacity:0.8;stroke:#ffa500;stroke-opacity:0.8;" x="341.462483" xlink:href="#m9bb9fc734c" y="442.273688"/>
     <use style="fill:#ffa500;fill-opacity:0.8;stroke:#ffa500;stroke-opacity:0.8;" x="346.066956" xlink:href="#m9bb9fc734c" y="400.505206"/>
     <use style="fill:#ffa500;fill-opacity:0.8;stroke:#ffa500;stroke-opacity:0.8;" x="237.401393" xlink:href="#m9bb9fc734c" y="503.407556"/>
     <use style="fill:#ffa500;fill-opacity:0.8;stroke:#ffa500;stroke-opacity:0.8;" x="356.525688" xlink:href="#m9bb9fc734c" y="460.879648"/>
     <use style="fill:#ffa500;fill-opacity:0.8;stroke:#ffa500;stroke-opacity:0.8;" x="278.644315" xlink:href="#m9bb9fc734c" y="504.92641"/>
     <use style="fill:#ffa500;fill-opacity:0.8;stroke:#ffa500;stroke-opacity:0.8;" x="276.934083" xlink:href="#m9bb9fc734c" y="456.702799"/>
     <use style="fill:#ffa500;fill-opacity:0.8;stroke:#ffa500;stroke-opacity:0.8;" x="247.268121" xlink:href="#m9bb9fc734c" y="514.419247"/>
     <use style="fill:#ffa500;fill-opacity:0.8;stroke:#ffa500;stroke-opacity:0.8;" x="411.647808" xlink:href="#m9bb9fc734c" y="389.493516"/>
     <use style="fill:#ffa500;fill-opacity:0.8;stroke:#ffa500;stroke-opacity:0.8;" x="281.143886" xlink:href="#m9bb9fc734c" y="519.735235"/>
     <use style="fill:#ffa500;fill-opacity:0.8;stroke:#ffa500;stroke-opacity:0.8;" x="300.943121" xlink:href="#m9bb9fc734c" y="465.436209"/>
     <use style="fill:#ffa500;fill-opacity:0.8;stroke:#ffa500;stroke-opacity:0.8;" x="277.262973" xlink:href="#m9bb9fc734c" y="464.676782"/>
     <use style="fill:#ffa500;fill-opacity:0.8;stroke:#ffa500;stroke-opacity:0.8;" x="321.663249" xlink:href="#m9bb9fc734c" y="430.50257"/>
     <use style="fill:#ffa500;fill-opacity:0.8;stroke:#ffa500;stroke-opacity:0.8;" x="247.66279" xlink:href="#m9bb9fc734c" y="515.9381"/>
     <use style="fill:#ffa500;fill-opacity:0.8;stroke:#ffa500;stroke-opacity:0.8;" x="286.866589" xlink:href="#m9bb9fc734c" y="438.476553"/>
     <use style="fill:#ffa500;fill-opacity:0.8;stroke:#ffa500;stroke-opacity:0.8;" x="291.339505" xlink:href="#m9bb9fc734c" y="446.450536"/>
     <use style="fill:#ffa500;fill-opacity:0.8;stroke:#ffa500;stroke-opacity:0.8;" x="315.545878" xlink:href="#m9bb9fc734c" y="452.146238"/>
     <use style="fill:#ffa500;fill-opacity:0.8;stroke:#ffa500;stroke-opacity:0.8;" x="297.588433" xlink:href="#m9bb9fc734c" y="424.427155"/>
     <use style="fill:#ffa500;fill-opacity:0.8;stroke:#ffa500;stroke-opacity:0.8;" x="313.177863" xlink:href="#m9bb9fc734c" y="474.929046"/>
     <use style="fill:#ffa500;fill-opacity:0.8;stroke:#ffa500;stroke-opacity:0.8;" x="283.446123" xlink:href="#m9bb9fc734c" y="494.674146"/>
     <use style="fill:#ffa500;fill-opacity:0.8;stroke:#ffa500;stroke-opacity:0.8;" x="439.011534" xlink:href="#m9bb9fc734c" y="291.527441"/>
     <use style="fill:#ffa500;fill-opacity:0.8;stroke:#ffa500;stroke-opacity:0.8;" x="310.086288" xlink:href="#m9bb9fc734c" y="458.601367"/>
     <use style="fill:#ffa500;fill-opacity:0.8;stroke:#ffa500;stroke-opacity:0.8;" x="296.864873" xlink:href="#m9bb9fc734c" y="490.497298"/>
     <use style="fill:#ffa500;fill-opacity:0.8;stroke:#ffa500;stroke-opacity:0.8;" x="267.659358" xlink:href="#m9bb9fc734c" y="503.407556"/>
     <use style="fill:#ffa500;fill-opacity:0.8;stroke:#ffa500;stroke-opacity:0.8;" x="263.186442" xlink:href="#m9bb9fc734c" y="503.407556"/>
     <use style="fill:#ffa500;fill-opacity:0.8;stroke:#ffa500;stroke-opacity:0.8;" x="322.452588" xlink:href="#m9bb9fc734c" y="416.073458"/>
     <use style="fill:#ffa500;fill-opacity:0.8;stroke:#ffa500;stroke-opacity:0.8;" x="308.968059" xlink:href="#m9bb9fc734c" y="465.436209"/>
     <use style="fill:#ffa500;fill-opacity:0.8;stroke:#ffa500;stroke-opacity:0.8;" x="242.532091" xlink:href="#m9bb9fc734c" y="524.291797"/>
     <use style="fill:#ffa500;fill-opacity:0.8;stroke:#ffa500;stroke-opacity:0.8;" x="300.416895" xlink:href="#m9bb9fc734c" y="484.421883"/>
     <use style="fill:#ffa500;fill-opacity:0.8;stroke:#ffa500;stroke-opacity:0.8;" x="278.775872" xlink:href="#m9bb9fc734c" y="465.436209"/>
     <use style="fill:#ffa500;fill-opacity:0.8;stroke:#ffa500;stroke-opacity:0.8;" x="315.808991" xlink:href="#m9bb9fc734c" y="486.32045"/>
     <use style="fill:#ffa500;fill-opacity:0.8;stroke:#ffa500;stroke-opacity:0.8;" x="296.667538" xlink:href="#m9bb9fc734c" y="455.183946"/>
     <use style="fill:#ffa500;fill-opacity:0.8;stroke:#ffa500;stroke-opacity:0.8;" x="337.976239" xlink:href="#m9bb9fc734c" y="442.653401"/>
     <use style="fill:#ffa500;fill-opacity:0.8;stroke:#ffa500;stroke-opacity:0.8;" x="286.998145" xlink:href="#m9bb9fc734c" y="503.407556"/>
     <use style="fill:#ffa500;fill-opacity:0.8;stroke:#ffa500;stroke-opacity:0.8;" x="291.076393" xlink:href="#m9bb9fc734c" y="462.778215"/>
     <use style="fill:#ffa500;fill-opacity:0.8;stroke:#ffa500;stroke-opacity:0.8;" x="302.653353" xlink:href="#m9bb9fc734c" y="491.636439"/>
     <use style="fill:#ffa500;fill-opacity:0.8;stroke:#ffa500;stroke-opacity:0.8;" x="385.402312" xlink:href="#m9bb9fc734c" y="389.493516"/>
     <use style="fill:#ffa500;fill-opacity:0.8;stroke:#ffa500;stroke-opacity:0.8;" x="285.222134" xlink:href="#m9bb9fc734c" y="494.294433"/>
     <use style="fill:#ffa500;fill-opacity:0.8;stroke:#ffa500;stroke-opacity:0.8;" x="294.562636" xlink:href="#m9bb9fc734c" y="482.903029"/>
     <use style="fill:#ffa500;fill-opacity:0.8;stroke:#ffa500;stroke-opacity:0.8;" x="271.408715" xlink:href="#m9bb9fc734c" y="463.157928"/>
     <use style="fill:#ffa500;fill-opacity:0.8;stroke:#ffa500;stroke-opacity:0.8;" x="243.387208" xlink:href="#m9bb9fc734c" y="529.228072"/>
     <use style="fill:#ffa500;fill-opacity:0.8;stroke:#ffa500;stroke-opacity:0.8;" x="379.67961" xlink:href="#m9bb9fc734c" y="366.710708"/>
     <use style="fill:#ffa500;fill-opacity:0.8;stroke:#ffa500;stroke-opacity:0.8;" x="300.022226" xlink:href="#m9bb9fc734c" y="465.436209"/>
     <use style="fill:#ffa500;fill-opacity:0.8;stroke:#ffa500;stroke-opacity:0.8;" x="325.938831" xlink:href="#m9bb9fc734c" y="389.493516"/>
     <use style="fill:#ffa500;fill-opacity:0.8;stroke:#ffa500;stroke-opacity:0.8;" x="392.835247" xlink:href="#m9bb9fc734c" y="351.522169"/>
     <use style="fill:#ffa500;fill-opacity:0.8;stroke:#ffa500;stroke-opacity:0.8;" x="367.510645" xlink:href="#m9bb9fc734c" y="501.508989"/>
     <use style="fill:#ffa500;fill-opacity:0.8;stroke:#ffa500;stroke-opacity:0.8;" x="298.377771" xlink:href="#m9bb9fc734c" y="465.436209"/>
     <use style="fill:#ffa500;fill-opacity:0.8;stroke:#ffa500;stroke-opacity:0.8;" x="262.199769" xlink:href="#m9bb9fc734c" y="484.421883"/>
     <use style="fill:#ffa500;fill-opacity:0.8;stroke:#ffa500;stroke-opacity:0.8;" x="247.399677" xlink:href="#m9bb9fc734c" y="480.624748"/>
     <use style="fill:#ffa500;fill-opacity:0.8;stroke:#ffa500;stroke-opacity:0.8;" x="408.68779" xlink:href="#m9bb9fc734c" y="381.899246"/>
     <use style="fill:#ffa500;fill-opacity:0.8;stroke:#ffa500;stroke-opacity:0.8;" x="245.09744" xlink:href="#m9bb9fc734c" y="520.114949"/>
     <use style="fill:#ffa500;fill-opacity:0.8;stroke:#ffa500;stroke-opacity:0.8;" x="347.842967" xlink:href="#m9bb9fc734c" y="414.554605"/>
     <use style="fill:#ffa500;fill-opacity:0.8;stroke:#ffa500;stroke-opacity:0.8;" x="307.915608" xlink:href="#m9bb9fc734c" y="446.070822"/>
     <use style="fill:#ffa500;fill-opacity:0.8;stroke:#ffa500;stroke-opacity:0.8;" x="429.736809" xlink:href="#m9bb9fc734c" y="465.436209"/>
     <use style="fill:#ffa500;fill-opacity:0.8;stroke:#ffa500;stroke-opacity:0.8;" x="353.434113" xlink:href="#m9bb9fc734c" y="522.393229"/>
     <use style="fill:#ffa500;fill-opacity:0.8;stroke:#ffa500;stroke-opacity:0.8;" x="253.648605" xlink:href="#m9bb9fc734c" y="512.520679"/>
     <use style="fill:#ffa500;fill-opacity:0.8;stroke:#ffa500;stroke-opacity:0.8;" x="497.225229" xlink:href="#m9bb9fc734c" y="323.803086"/>
     <use style="fill:#ffa500;fill-opacity:0.8;stroke:#ffa500;stroke-opacity:0.8;" x="313.177863" xlink:href="#m9bb9fc734c" y="457.462226"/>
     <use style="fill:#ffa500;fill-opacity:0.8;stroke:#ffa500;stroke-opacity:0.8;" x="270.553598" xlink:href="#m9bb9fc734c" y="503.407556"/>
     <use style="fill:#ffa500;fill-opacity:0.8;stroke:#ffa500;stroke-opacity:0.8;" x="252.201484" xlink:href="#m9bb9fc734c" y="504.166983"/>
     <use style="fill:#ffa500;fill-opacity:0.8;stroke:#ffa500;stroke-opacity:0.8;" x="300.022226" xlink:href="#m9bb9fc734c" y="436.577986"/>
     <use style="fill:#ffa500;fill-opacity:0.8;stroke:#ffa500;stroke-opacity:0.8;" x="295.417753" xlink:href="#m9bb9fc734c" y="479.105894"/>
     <use style="fill:#ffa500;fill-opacity:0.8;stroke:#ffa500;stroke-opacity:0.8;" x="311.796521" xlink:href="#m9bb9fc734c" y="459.740507"/>
     <use style="fill:#ffa500;fill-opacity:0.8;stroke:#ffa500;stroke-opacity:0.8;" x="287.91904" xlink:href="#m9bb9fc734c" y="485.561023"/>
     <use style="fill:#ffa500;fill-opacity:0.8;stroke:#ffa500;stroke-opacity:0.8;" x="199.907826" xlink:href="#m9bb9fc734c" y="541.378903"/>
     <use style="fill:#ffa500;fill-opacity:0.8;stroke:#ffa500;stroke-opacity:0.8;" x="312.783194" xlink:href="#m9bb9fc734c" y="503.027843"/>
     <use style="fill:#ffa500;fill-opacity:0.8;stroke:#ffa500;stroke-opacity:0.8;" x="278.446981" xlink:href="#m9bb9fc734c" y="499.990135"/>
     <use style="fill:#ffa500;fill-opacity:0.8;stroke:#ffa500;stroke-opacity:0.8;" x="258.779303" xlink:href="#m9bb9fc734c" y="504.546696"/>
     <use style="fill:#ffa500;fill-opacity:0.8;stroke:#ffa500;stroke-opacity:0.8;" x="291.997287" xlink:href="#m9bb9fc734c" y="465.436209"/>
     <use style="fill:#ffa500;fill-opacity:0.8;stroke:#ffa500;stroke-opacity:0.8;" x="356.394132" xlink:href="#m9bb9fc734c" y="460.120221"/>
     <use style="fill:#ffa500;fill-opacity:0.8;stroke:#ffa500;stroke-opacity:0.8;" x="346.001178" xlink:href="#m9bb9fc734c" y="389.493516"/>
     <use style="fill:#ffa500;fill-opacity:0.8;stroke:#ffa500;stroke-opacity:0.8;" x="276.605192" xlink:href="#m9bb9fc734c" y="495.813287"/>
     <use style="fill:#ffa500;fill-opacity:0.8;stroke:#ffa500;stroke-opacity:0.8;" x="248.846797" xlink:href="#m9bb9fc734c" y="531.886066"/>
     <use style="fill:#ffa500;fill-opacity:0.8;stroke:#ffa500;stroke-opacity:0.8;" x="297.588433" xlink:href="#m9bb9fc734c" y="462.398502"/>
     <use style="fill:#ffa500;fill-opacity:0.8;stroke:#ffa500;stroke-opacity:0.8;" x="358.63059" xlink:href="#m9bb9fc734c" y="427.464862"/>
     <use style="fill:#ffa500;fill-opacity:0.8;stroke:#ffa500;stroke-opacity:0.8;" x="329.425075" xlink:href="#m9bb9fc734c" y="465.436209"/>
     <use style="fill:#ffa500;fill-opacity:0.8;stroke:#ffa500;stroke-opacity:0.8;" x="293.444407" xlink:href="#m9bb9fc734c" y="476.4479"/>
     <use style="fill:#ffa500;fill-opacity:0.8;stroke:#ffa500;stroke-opacity:0.8;" x="307.586717" xlink:href="#m9bb9fc734c" y="465.436209"/>
     <use style="fill:#ffa500;fill-opacity:0.8;stroke:#ffa500;stroke-opacity:0.8;" x="289.300382" xlink:href="#m9bb9fc734c" y="450.247671"/>
     <use style="fill:#ffa500;fill-opacity:0.8;stroke:#ffa500;stroke-opacity:0.8;" x="245.952557" xlink:href="#m9bb9fc734c" y="509.862685"/>
     <use style="fill:#ffa500;fill-opacity:0.8;stroke:#ffa500;stroke-opacity:0.8;" x="394.677036" xlink:href="#m9bb9fc734c" y="389.493516"/>
     <use style="fill:#ffa500;fill-opacity:0.8;stroke:#ffa500;stroke-opacity:0.8;" x="284.827465" xlink:href="#m9bb9fc734c" y="502.268416"/>
     <use style="fill:#ffa500;fill-opacity:0.8;stroke:#ffa500;stroke-opacity:0.8;" x="408.819346" xlink:href="#m9bb9fc734c" y="383.038387"/>
     <use style="fill:#ffa500;fill-opacity:0.8;stroke:#ffa500;stroke-opacity:0.8;" x="265.4229" xlink:href="#m9bb9fc734c" y="503.407556"/>
     <use style="fill:#ffa500;fill-opacity:0.8;stroke:#ffa500;stroke-opacity:0.8;" x="299.956448" xlink:href="#m9bb9fc734c" y="427.464862"/>
     <use style="fill:#ffa500;fill-opacity:0.8;stroke:#ffa500;stroke-opacity:0.8;" x="342.251822" xlink:href="#m9bb9fc734c" y="357.217871"/>
     <use style="fill:#ffa500;fill-opacity:0.8;stroke:#ffa500;stroke-opacity:0.8;" x="318.900565" xlink:href="#m9bb9fc734c" y="465.436209"/>
     <use style="fill:#ffa500;fill-opacity:0.8;stroke:#ffa500;stroke-opacity:0.8;" x="370.273329" xlink:href="#m9bb9fc734c" y="465.436209"/>
     <use style="fill:#ffa500;fill-opacity:0.8;stroke:#ffa500;stroke-opacity:0.8;" x="327.649064" xlink:href="#m9bb9fc734c" y="446.450536"/>
     <use style="fill:#ffa500;fill-opacity:0.8;stroke:#ffa500;stroke-opacity:0.8;" x="217.53638" xlink:href="#m9bb9fc734c" y="541.378903"/>
     <use style="fill:#ffa500;fill-opacity:0.8;stroke:#ffa500;stroke-opacity:0.8;" x="287.063923" xlink:href="#m9bb9fc734c" y="416.073458"/>
     <use style="fill:#ffa500;fill-opacity:0.8;stroke:#ffa500;stroke-opacity:0.8;" x="329.359297" xlink:href="#m9bb9fc734c" y="455.943373"/>
     <use style="fill:#ffa500;fill-opacity:0.8;stroke:#ffa500;stroke-opacity:0.8;" x="443.944898" xlink:href="#m9bb9fc734c" y="399.745779"/>
     <use style="fill:#ffa500;fill-opacity:0.8;stroke:#ffa500;stroke-opacity:0.8;" x="359.156815" xlink:href="#m9bb9fc734c" y="427.464862"/>
     <use style="fill:#ffa500;fill-opacity:0.8;stroke:#ffa500;stroke-opacity:0.8;" x="258.845081" xlink:href="#m9bb9fc734c" y="522.393229"/>
     <use style="fill:#ffa500;fill-opacity:0.8;stroke:#ffa500;stroke-opacity:0.8;" x="317.913893" xlink:href="#m9bb9fc734c" y="465.436209"/>
     <use style="fill:#ffa500;fill-opacity:0.8;stroke:#ffa500;stroke-opacity:0.8;" x="261.673543" xlink:href="#m9bb9fc734c" y="522.393229"/>
     <use style="fill:#ffa500;fill-opacity:0.8;stroke:#ffa500;stroke-opacity:0.8;" x="254.372165" xlink:href="#m9bb9fc734c" y="484.421883"/>
     <use style="fill:#ffa500;fill-opacity:0.8;stroke:#ffa500;stroke-opacity:0.8;" x="280.880774" xlink:href="#m9bb9fc734c" y="465.436209"/>
     <use style="fill:#ffa500;fill-opacity:0.8;stroke:#ffa500;stroke-opacity:0.8;" x="471.111289" xlink:href="#m9bb9fc734c" y="484.421883"/>
     <use style="fill:#ffa500;fill-opacity:0.8;stroke:#ffa500;stroke-opacity:0.8;" x="327.188617" xlink:href="#m9bb9fc734c" y="447.209963"/>
     <use style="fill:#ffa500;fill-opacity:0.8;stroke:#ffa500;stroke-opacity:0.8;" x="317.321889" xlink:href="#m9bb9fc734c" y="424.427155"/>
     <use style="fill:#ffa500;fill-opacity:0.8;stroke:#ffa500;stroke-opacity:0.8;" x="280.749217" xlink:href="#m9bb9fc734c" y="517.077241"/>
     <use style="fill:#ffa500;fill-opacity:0.8;stroke:#ffa500;stroke-opacity:0.8;" x="314.493427" xlink:href="#m9bb9fc734c" y="425.186582"/>
     <use style="fill:#ffa500;fill-opacity:0.8;stroke:#ffa500;stroke-opacity:0.8;" x="345.540731" xlink:href="#m9bb9fc734c" y="416.453172"/>
     <use style="fill:#ffa500;fill-opacity:0.8;stroke:#ffa500;stroke-opacity:0.8;" x="299.693335" xlink:href="#m9bb9fc734c" y="436.577986"/>
     <use style="fill:#ffa500;fill-opacity:0.8;stroke:#ffa500;stroke-opacity:0.8;" x="273.842508" xlink:href="#m9bb9fc734c" y="427.464862"/>
     <use style="fill:#ffa500;fill-opacity:0.8;stroke:#ffa500;stroke-opacity:0.8;" x="271.803384" xlink:href="#m9bb9fc734c" y="465.436209"/>
     <use style="fill:#ffa500;fill-opacity:0.8;stroke:#ffa500;stroke-opacity:0.8;" x="227.403108" xlink:href="#m9bb9fc734c" y="541.378903"/>
     <use style="fill:#ffa500;fill-opacity:0.8;stroke:#ffa500;stroke-opacity:0.8;" x="430.131479" xlink:href="#m9bb9fc734c" y="427.464862"/>
     <use style="fill:#ffa500;fill-opacity:0.8;stroke:#ffa500;stroke-opacity:0.8;" x="337.252679" xlink:href="#m9bb9fc734c" y="482.523315"/>
     <use style="fill:#ffa500;fill-opacity:0.8;stroke:#ffa500;stroke-opacity:0.8;" x="348.82964" xlink:href="#m9bb9fc734c" y="427.464862"/>
     <use style="fill:#ffa500;fill-opacity:0.8;stroke:#ffa500;stroke-opacity:0.8;" x="293.575964" xlink:href="#m9bb9fc734c" y="446.450536"/>
     <use style="fill:#ffa500;fill-opacity:0.8;stroke:#ffa500;stroke-opacity:0.8;" x="376.588035" xlink:href="#m9bb9fc734c" y="386.835521"/>
     <use style="fill:#ffa500;fill-opacity:0.8;stroke:#ffa500;stroke-opacity:0.8;" x="249.767692" xlink:href="#m9bb9fc734c" y="522.393229"/>
     <use style="fill:#ffa500;fill-opacity:0.8;stroke:#ffa500;stroke-opacity:0.8;" x="261.476209" xlink:href="#m9bb9fc734c" y="511.001825"/>
     <use style="fill:#ffa500;fill-opacity:0.8;stroke:#ffa500;stroke-opacity:0.8;" x="338.107796" xlink:href="#m9bb9fc734c" y="468.473917"/>
     <use style="fill:#ffa500;fill-opacity:0.8;stroke:#ffa500;stroke-opacity:0.8;" x="256.608623" xlink:href="#m9bb9fc734c" y="491.636439"/>
     <use style="fill:#ffa500;fill-opacity:0.8;stroke:#ffa500;stroke-opacity:0.8;" x="267.988249" xlink:href="#m9bb9fc734c" y="515.558387"/>
     <use style="fill:#ffa500;fill-opacity:0.8;stroke:#ffa500;stroke-opacity:0.8;" x="273.513617" xlink:href="#m9bb9fc734c" y="484.421883"/>
     <use style="fill:#ffa500;fill-opacity:0.8;stroke:#ffa500;stroke-opacity:0.8;" x="284.63013" xlink:href="#m9bb9fc734c" y="503.407556"/>
     <use style="fill:#ffa500;fill-opacity:0.8;stroke:#ffa500;stroke-opacity:0.8;" x="261.8051" xlink:href="#m9bb9fc734c" y="483.662456"/>
     <use style="fill:#ffa500;fill-opacity:0.8;stroke:#ffa500;stroke-opacity:0.8;" x="375.732918" xlink:href="#m9bb9fc734c" y="419.870593"/>
     <use style="fill:#ffa500;fill-opacity:0.8;stroke:#ffa500;stroke-opacity:0.8;" x="235.756938" xlink:href="#m9bb9fc734c" y="523.152656"/>
     <use style="fill:#ffa500;fill-opacity:0.8;stroke:#ffa500;stroke-opacity:0.8;" x="275.22385" xlink:href="#m9bb9fc734c" y="503.407556"/>
     <use style="fill:#ffa500;fill-opacity:0.8;stroke:#ffa500;stroke-opacity:0.8;" x="254.569499" xlink:href="#m9bb9fc734c" y="503.407556"/>
     <use style="fill:#ffa500;fill-opacity:0.8;stroke:#ffa500;stroke-opacity:0.8;" x="329.819744" xlink:href="#m9bb9fc734c" y="496.572714"/>
     <use style="fill:#ffa500;fill-opacity:0.8;stroke:#ffa500;stroke-opacity:0.8;" x="305.218703" xlink:href="#m9bb9fc734c" y="522.393229"/>
     <use style="fill:#ffa500;fill-opacity:0.8;stroke:#ffa500;stroke-opacity:0.8;" x="313.046307" xlink:href="#m9bb9fc734c" y="471.891338"/>
     <use style="fill:#ffa500;fill-opacity:0.8;stroke:#ffa500;stroke-opacity:0.8;" x="253.188157" xlink:href="#m9bb9fc734c" y="522.393229"/>
     <use style="fill:#ffa500;fill-opacity:0.8;stroke:#ffa500;stroke-opacity:0.8;" x="260.35798" xlink:href="#m9bb9fc734c" y="503.407556"/>
     <use style="fill:#ffa500;fill-opacity:0.8;stroke:#ffa500;stroke-opacity:0.8;" x="299.824891" xlink:href="#m9bb9fc734c" y="455.943373"/>
     <use style="fill:#ffa500;fill-opacity:0.8;stroke:#ffa500;stroke-opacity:0.8;" x="235.69116" xlink:href="#m9bb9fc734c" y="531.886066"/>
     <use style="fill:#ffa500;fill-opacity:0.8;stroke:#ffa500;stroke-opacity:0.8;" x="247.66279" xlink:href="#m9bb9fc734c" y="503.407556"/>
     <use style="fill:#ffa500;fill-opacity:0.8;stroke:#ffa500;stroke-opacity:0.8;" x="272.790057" xlink:href="#m9bb9fc734c" y="503.407556"/>
     <use style="fill:#ffa500;fill-opacity:0.8;stroke:#ffa500;stroke-opacity:0.8;" x="284.959021" xlink:href="#m9bb9fc734c" y="503.407556"/>
     <use style="fill:#ffa500;fill-opacity:0.8;stroke:#ffa500;stroke-opacity:0.8;" x="266.278016" xlink:href="#m9bb9fc734c" y="474.929046"/>
     <use style="fill:#ffa500;fill-opacity:0.8;stroke:#ffa500;stroke-opacity:0.8;" x="294.628415" xlink:href="#m9bb9fc734c" y="446.450536"/>
     <use style="fill:#ffa500;fill-opacity:0.8;stroke:#ffa500;stroke-opacity:0.8;" x="405.333102" xlink:href="#m9bb9fc734c" y="324.942226"/>
     <use style="fill:#ffa500;fill-opacity:0.8;stroke:#ffa500;stroke-opacity:0.8;" x="450.654273" xlink:href="#m9bb9fc734c" y="389.493516"/>
     <use style="fill:#ffa500;fill-opacity:0.8;stroke:#ffa500;stroke-opacity:0.8;" x="357.643917" xlink:href="#m9bb9fc734c" y="389.493516"/>
     <use style="fill:#ffa500;fill-opacity:0.8;stroke:#ffa500;stroke-opacity:0.8;" x="287.787483" xlink:href="#m9bb9fc734c" y="492.016152"/>
     <use style="fill:#ffa500;fill-opacity:0.8;stroke:#ffa500;stroke-opacity:0.8;" x="234.638709" xlink:href="#m9bb9fc734c" y="522.393229"/>
     <use style="fill:#ffa500;fill-opacity:0.8;stroke:#ffa500;stroke-opacity:0.8;" x="302.324462" xlink:href="#m9bb9fc734c" y="527.709218"/>
     <use style="fill:#ffa500;fill-opacity:0.8;stroke:#ffa500;stroke-opacity:0.8;" x="257.79263" xlink:href="#m9bb9fc734c" y="517.456954"/>
     <use style="fill:#ffa500;fill-opacity:0.8;stroke:#ffa500;stroke-opacity:0.8;" x="244.044989" xlink:href="#m9bb9fc734c" y="513.65982"/>
     <use style="fill:#ffa500;fill-opacity:0.8;stroke:#ffa500;stroke-opacity:0.8;" x="229.113341" xlink:href="#m9bb9fc734c" y="503.407556"/>
     <use style="fill:#ffa500;fill-opacity:0.8;stroke:#ffa500;stroke-opacity:0.8;" x="272.263831" xlink:href="#m9bb9fc734c" y="484.421883"/>
     <use style="fill:#ffa500;fill-opacity:0.8;stroke:#ffa500;stroke-opacity:0.8;" x="266.080682" xlink:href="#m9bb9fc734c" y="503.407556"/>
     <use style="fill:#ffa500;fill-opacity:0.8;stroke:#ffa500;stroke-opacity:0.8;" x="293.247073" xlink:href="#m9bb9fc734c" y="475.308759"/>
     <use style="fill:#ffa500;fill-opacity:0.8;stroke:#ffa500;stroke-opacity:0.8;" x="341.199371" xlink:href="#m9bb9fc734c" y="503.407556"/>
     <use style="fill:#ffa500;fill-opacity:0.8;stroke:#ffa500;stroke-opacity:0.8;" x="309.757398" xlink:href="#m9bb9fc734c" y="503.407556"/>
     <use style="fill:#ffa500;fill-opacity:0.8;stroke:#ffa500;stroke-opacity:0.8;" x="376.061809" xlink:href="#m9bb9fc734c" y="384.177527"/>
     <use style="fill:#ffa500;fill-opacity:0.8;stroke:#ffa500;stroke-opacity:0.8;" x="496.567447" xlink:href="#m9bb9fc734c" y="389.493516"/>
     <use style="fill:#ffa500;fill-opacity:0.8;stroke:#ffa500;stroke-opacity:0.8;" x="344.159389" xlink:href="#m9bb9fc734c" y="436.957699"/>
     <use style="fill:#ffa500;fill-opacity:0.8;stroke:#ffa500;stroke-opacity:0.8;" x="267.790915" xlink:href="#m9bb9fc734c" y="480.245035"/>
     <use style="fill:#ffa500;fill-opacity:0.8;stroke:#ffa500;stroke-opacity:0.8;" x="288.182152" xlink:href="#m9bb9fc734c" y="503.407556"/>
     <use style="fill:#ffa500;fill-opacity:0.8;stroke:#ffa500;stroke-opacity:0.8;" x="321.137024" xlink:href="#m9bb9fc734c" y="446.450536"/>
     <use style="fill:#ffa500;fill-opacity:0.8;stroke:#ffa500;stroke-opacity:0.8;" x="262.989107" xlink:href="#m9bb9fc734c" y="484.421883"/>
     <use style="fill:#ffa500;fill-opacity:0.8;stroke:#ffa500;stroke-opacity:0.8;" x="286.340363" xlink:href="#m9bb9fc734c" y="503.407556"/>
     <use style="fill:#ffa500;fill-opacity:0.8;stroke:#ffa500;stroke-opacity:0.8;" x="270.553598" xlink:href="#m9bb9fc734c" y="503.407556"/>
     <use style="fill:#ffa500;fill-opacity:0.8;stroke:#ffa500;stroke-opacity:0.8;" x="294.891527" xlink:href="#m9bb9fc734c" y="465.436209"/>
     <use style="fill:#ffa500;fill-opacity:0.8;stroke:#ffa500;stroke-opacity:0.8;" x="341.002036" xlink:href="#m9bb9fc734c" y="447.209963"/>
     <use style="fill:#ffa500;fill-opacity:0.8;stroke:#ffa500;stroke-opacity:0.8;" x="316.269438" xlink:href="#m9bb9fc734c" y="494.294433"/>
     <use style="fill:#ffa500;fill-opacity:0.8;stroke:#ffa500;stroke-opacity:0.8;" x="388.296552" xlink:href="#m9bb9fc734c" y="408.479189"/>
     <use style="fill:#ffa500;fill-opacity:0.8;stroke:#ffa500;stroke-opacity:0.8;" x="249.373022" xlink:href="#m9bb9fc734c" y="518.216381"/>
     <use style="fill:#ffa500;fill-opacity:0.8;stroke:#ffa500;stroke-opacity:0.8;" x="249.636135" xlink:href="#m9bb9fc734c" y="503.407556"/>
     <use style="fill:#ffa500;fill-opacity:0.8;stroke:#ffa500;stroke-opacity:0.8;" x="513.932888" xlink:href="#m9bb9fc734c" y="199.636782"/>
     <use style="fill:#ffa500;fill-opacity:0.8;stroke:#ffa500;stroke-opacity:0.8;" x="283.709236" xlink:href="#m9bb9fc734c" y="459.360794"/>
     <use style="fill:#ffa500;fill-opacity:0.8;stroke:#ffa500;stroke-opacity:0.8;" x="227.403108" xlink:href="#m9bb9fc734c" y="383.797814"/>
     <use style="fill:#ffa500;fill-opacity:0.8;stroke:#ffa500;stroke-opacity:0.8;" x="389.217447" xlink:href="#m9bb9fc734c" y="458.601367"/>
     <use style="fill:#ffa500;fill-opacity:0.8;stroke:#ffa500;stroke-opacity:0.8;" x="290.352833" xlink:href="#m9bb9fc734c" y="427.464862"/>
     <use style="fill:#ffa500;fill-opacity:0.8;stroke:#ffa500;stroke-opacity:0.8;" x="396.124156" xlink:href="#m9bb9fc734c" y="461.259361"/>
     <use style="fill:#ffa500;fill-opacity:0.8;stroke:#ffa500;stroke-opacity:0.8;" x="297.391099" xlink:href="#m9bb9fc734c" y="503.407556"/>
     <use style="fill:#ffa500;fill-opacity:0.8;stroke:#ffa500;stroke-opacity:0.8;" x="274.960737" xlink:href="#m9bb9fc734c" y="503.407556"/>
     <use style="fill:#ffa500;fill-opacity:0.8;stroke:#ffa500;stroke-opacity:0.8;" x="242.860982" xlink:href="#m9bb9fc734c" y="427.464862"/>
     <use style="fill:#ffa500;fill-opacity:0.8;stroke:#ffa500;stroke-opacity:0.8;" x="407.503782" xlink:href="#m9bb9fc734c" y="444.551969"/>
     <use style="fill:#ffa500;fill-opacity:0.8;stroke:#ffa500;stroke-opacity:0.8;" x="407.635339" xlink:href="#m9bb9fc734c" y="439.615693"/>
     <use style="fill:#ffa500;fill-opacity:0.8;stroke:#ffa500;stroke-opacity:0.8;" x="333.174432" xlink:href="#m9bb9fc734c" y="364.81214"/>
     <use style="fill:#ffa500;fill-opacity:0.8;stroke:#ffa500;stroke-opacity:0.8;" x="478.017998" xlink:href="#m9bb9fc734c" y="446.450536"/>
     <use style="fill:#ffa500;fill-opacity:0.8;stroke:#ffa500;stroke-opacity:0.8;" x="332.121981" xlink:href="#m9bb9fc734c" y="332.536495"/>
     <use style="fill:#ffa500;fill-opacity:0.8;stroke:#ffa500;stroke-opacity:0.8;" x="446.444469" xlink:href="#m9bb9fc734c" y="465.436209"/>
     <use style="fill:#ffa500;fill-opacity:0.8;stroke:#ffa500;stroke-opacity:0.8;" x="315.808991" xlink:href="#m9bb9fc734c" y="389.493516"/>
     <use style="fill:#ffa500;fill-opacity:0.8;stroke:#ffa500;stroke-opacity:0.8;" x="317.190333" xlink:href="#m9bb9fc734c" y="446.450536"/>
     <use style="fill:#ffa500;fill-opacity:0.8;stroke:#ffa500;stroke-opacity:0.8;" x="380.074279" xlink:href="#m9bb9fc734c" y="503.407556"/>
     <use style="fill:#ffa500;fill-opacity:0.8;stroke:#ffa500;stroke-opacity:0.8;" x="299.101331" xlink:href="#m9bb9fc734c" y="446.450536"/>
     <use style="fill:#ffa500;fill-opacity:0.8;stroke:#ffa500;stroke-opacity:0.8;" x="331.661534" xlink:href="#m9bb9fc734c" y="427.464862"/>
     <use style="fill:#ffa500;fill-opacity:0.8;stroke:#ffa500;stroke-opacity:0.8;" x="282.919898" xlink:href="#m9bb9fc734c" y="522.393229"/>
     <use style="fill:#ffa500;fill-opacity:0.8;stroke:#ffa500;stroke-opacity:0.8;" x="310.02051" xlink:href="#m9bb9fc734c" y="420.250307"/>
     <use style="fill:#ffa500;fill-opacity:0.8;stroke:#ffa500;stroke-opacity:0.8;" x="366.787085" xlink:href="#m9bb9fc734c" y="482.143602"/>
     <use style="fill:#ffa500;fill-opacity:0.8;stroke:#ffa500;stroke-opacity:0.8;" x="281.538556" xlink:href="#m9bb9fc734c" y="502.648129"/>
     <use style="fill:#ffa500;fill-opacity:0.8;stroke:#ffa500;stroke-opacity:0.8;" x="288.774156" xlink:href="#m9bb9fc734c" y="427.464862"/>
     <use style="fill:#ffa500;fill-opacity:0.8;stroke:#ffa500;stroke-opacity:0.8;" x="229.442232" xlink:href="#m9bb9fc734c" y="524.67151"/>
     <use style="fill:#ffa500;fill-opacity:0.8;stroke:#ffa500;stroke-opacity:0.8;" x="247.728568" xlink:href="#m9bb9fc734c" y="503.407556"/>
     <use style="fill:#ffa500;fill-opacity:0.8;stroke:#ffa500;stroke-opacity:0.8;" x="463.283684" xlink:href="#m9bb9fc734c" y="389.493516"/>
     <use style="fill:#ffa500;fill-opacity:0.8;stroke:#ffa500;stroke-opacity:0.8;" x="265.225565" xlink:href="#m9bb9fc734c" y="503.407556"/>
     <use style="fill:#ffa500;fill-opacity:0.8;stroke:#ffa500;stroke-opacity:0.8;" x="268.580253" xlink:href="#m9bb9fc734c" y="503.407556"/>
     <use style="fill:#ffa500;fill-opacity:0.8;stroke:#ffa500;stroke-opacity:0.8;" x="302.78491" xlink:href="#m9bb9fc734c" y="427.464862"/>
     <use style="fill:#ffa500;fill-opacity:0.8;stroke:#ffa500;stroke-opacity:0.8;" x="263.515333" xlink:href="#m9bb9fc734c" y="503.027843"/>
     <use style="fill:#ffa500;fill-opacity:0.8;stroke:#ffa500;stroke-opacity:0.8;" x="265.225565" xlink:href="#m9bb9fc734c" y="503.407556"/>
     <use style="fill:#ffa500;fill-opacity:0.8;stroke:#ffa500;stroke-opacity:0.8;" x="287.590149" xlink:href="#m9bb9fc734c" y="484.421883"/>
     <use style="fill:#ffa500;fill-opacity:0.8;stroke:#ffa500;stroke-opacity:0.8;" x="314.75654" xlink:href="#m9bb9fc734c" y="427.464862"/>
     <use style="fill:#ffa500;fill-opacity:0.8;stroke:#ffa500;stroke-opacity:0.8;" x="288.050596" xlink:href="#m9bb9fc734c" y="456.702799"/>
     <use style="fill:#ffa500;fill-opacity:0.8;stroke:#ffa500;stroke-opacity:0.8;" x="354.618121" xlink:href="#m9bb9fc734c" y="449.867957"/>
     <use style="fill:#ffa500;fill-opacity:0.8;stroke:#ffa500;stroke-opacity:0.8;" x="434.472839" xlink:href="#m9bb9fc734c" y="465.436209"/>
     <use style="fill:#ffa500;fill-opacity:0.8;stroke:#ffa500;stroke-opacity:0.8;" x="339.357581" xlink:href="#m9bb9fc734c" y="502.268416"/>
     <use style="fill:#ffa500;fill-opacity:0.8;stroke:#ffa500;stroke-opacity:0.8;" x="263.646889" xlink:href="#m9bb9fc734c" y="494.674146"/>
     <use style="fill:#ffa500;fill-opacity:0.8;stroke:#ffa500;stroke-opacity:0.8;" x="377.443151" xlink:href="#m9bb9fc734c" y="503.407556"/>
     <use style="fill:#ffa500;fill-opacity:0.8;stroke:#ffa500;stroke-opacity:0.8;" x="350.013648" xlink:href="#m9bb9fc734c" y="383.4181"/>
     <use style="fill:#ffa500;fill-opacity:0.8;stroke:#ffa500;stroke-opacity:0.8;" x="497.619898" xlink:href="#m9bb9fc734c" y="237.608128"/>
     <use style="fill:#ffa500;fill-opacity:0.8;stroke:#ffa500;stroke-opacity:0.8;" x="267.001576" xlink:href="#m9bb9fc734c" y="484.421883"/>
     <use style="fill:#ffa500;fill-opacity:0.8;stroke:#ffa500;stroke-opacity:0.8;" x="365.011074" xlink:href="#m9bb9fc734c" y="332.536495"/>
     <use style="fill:#ffa500;fill-opacity:0.8;stroke:#ffa500;stroke-opacity:0.8;" x="264.567784" xlink:href="#m9bb9fc734c" y="537.581768"/>
     <use style="fill:#ffa500;fill-opacity:0.8;stroke:#ffa500;stroke-opacity:0.8;" x="364.879518" xlink:href="#m9bb9fc734c" y="465.436209"/>
     <use style="fill:#ffa500;fill-opacity:0.8;stroke:#ffa500;stroke-opacity:0.8;" x="255.950841" xlink:href="#m9bb9fc734c" y="522.393229"/>
     <use style="fill:#ffa500;fill-opacity:0.8;stroke:#ffa500;stroke-opacity:0.8;" x="230.626239" xlink:href="#m9bb9fc734c" y="524.67151"/>
     <use style="fill:#ffa500;fill-opacity:0.8;stroke:#ffa500;stroke-opacity:0.8;" x="377.969377" xlink:href="#m9bb9fc734c" y="462.018788"/>
     <use style="fill:#ffa500;fill-opacity:0.8;stroke:#ffa500;stroke-opacity:0.8;" x="259.700198" xlink:href="#m9bb9fc734c" y="495.813287"/>
     <use style="fill:#ffa500;fill-opacity:0.8;stroke:#ffa500;stroke-opacity:0.8;" x="267.988249" xlink:href="#m9bb9fc734c" y="447.209963"/>
     <use style="fill:#ffa500;fill-opacity:0.8;stroke:#ffa500;stroke-opacity:0.8;" x="236.151607" xlink:href="#m9bb9fc734c" y="506.445264"/>
     <use style="fill:#ffa500;fill-opacity:0.8;stroke:#ffa500;stroke-opacity:0.8;" x="284.827465" xlink:href="#m9bb9fc734c" y="465.436209"/>
     <use style="fill:#ffa500;fill-opacity:0.8;stroke:#ffa500;stroke-opacity:0.8;" x="267.988249" xlink:href="#m9bb9fc734c" y="519.355522"/>
     <use style="fill:#ffa500;fill-opacity:0.8;stroke:#ffa500;stroke-opacity:0.8;" x="286.735032" xlink:href="#m9bb9fc734c" y="484.421883"/>
     <use style="fill:#ffa500;fill-opacity:0.8;stroke:#ffa500;stroke-opacity:0.8;" x="246.084113" xlink:href="#m9bb9fc734c" y="503.407556"/>
     <use style="fill:#ffa500;fill-opacity:0.8;stroke:#ffa500;stroke-opacity:0.8;" x="314.230314" xlink:href="#m9bb9fc734c" y="465.436209"/>
     <use style="fill:#ffa500;fill-opacity:0.8;stroke:#ffa500;stroke-opacity:0.8;" x="267.067355" xlink:href="#m9bb9fc734c" y="476.068186"/>
     <use style="fill:#ffa500;fill-opacity:0.8;stroke:#ffa500;stroke-opacity:0.8;" x="325.215271" xlink:href="#m9bb9fc734c" y="469.992771"/>
     <use style="fill:#ffa500;fill-opacity:0.8;stroke:#ffa500;stroke-opacity:0.8;" x="337.647349" xlink:href="#m9bb9fc734c" y="503.407556"/>
     <use style="fill:#ffa500;fill-opacity:0.8;stroke:#ffa500;stroke-opacity:0.8;" x="282.919898" xlink:href="#m9bb9fc734c" y="465.436209"/>
     <use style="fill:#ffa500;fill-opacity:0.8;stroke:#ffa500;stroke-opacity:0.8;" x="256.082397" xlink:href="#m9bb9fc734c" y="450.627384"/>
     <use style="fill:#ffa500;fill-opacity:0.8;stroke:#ffa500;stroke-opacity:0.8;" x="250.55703" xlink:href="#m9bb9fc734c" y="523.53237"/>
     <use style="fill:#ffa500;fill-opacity:0.8;stroke:#ffa500;stroke-opacity:0.8;" x="281.867447" xlink:href="#m9bb9fc734c" y="465.436209"/>
     <use style="fill:#ffa500;fill-opacity:0.8;stroke:#ffa500;stroke-opacity:0.8;" x="245.952557" xlink:href="#m9bb9fc734c" y="531.886066"/>
     <use style="fill:#ffa500;fill-opacity:0.8;stroke:#ffa500;stroke-opacity:0.8;" x="262.594438" xlink:href="#m9bb9fc734c" y="541.378903"/>
     <use style="fill:#ffa500;fill-opacity:0.8;stroke:#ffa500;stroke-opacity:0.8;" x="395.663709" xlink:href="#m9bb9fc734c" y="534.923774"/>
     <use style="fill:#ffa500;fill-opacity:0.8;stroke:#ffa500;stroke-opacity:0.8;" x="415.397165" xlink:href="#m9bb9fc734c" y="402.02406"/>
     <use style="fill:#ffa500;fill-opacity:0.8;stroke:#ffa500;stroke-opacity:0.8;" x="370.667998" xlink:href="#m9bb9fc734c" y="354.559877"/>
     <use style="fill:#ffa500;fill-opacity:0.8;stroke:#ffa500;stroke-opacity:0.8;" x="358.499034" xlink:href="#m9bb9fc734c" y="503.407556"/>
     <use style="fill:#ffa500;fill-opacity:0.8;stroke:#ffa500;stroke-opacity:0.8;" x="328.833072" xlink:href="#m9bb9fc734c" y="503.407556"/>
     <use style="fill:#ffa500;fill-opacity:0.8;stroke:#ffa500;stroke-opacity:0.8;" x="296.930651" xlink:href="#m9bb9fc734c" y="512.900393"/>
     <use style="fill:#ffa500;fill-opacity:0.8;stroke:#ffa500;stroke-opacity:0.8;" x="303.245357" xlink:href="#m9bb9fc734c" y="465.436209"/>
    </g>
   </g>
   <g id="PolyCollection_1">
    <defs>
     <path d="M 199.907826 -201.331025 
L 199.907826 -174.831638 
L 203.079797 -177.068177 
L 206.251767 -179.381865 
L 209.423737 -181.723138 
L 212.595708 -184.065173 
L 215.767678 -186.368955 
L 218.939648 -188.566572 
L 222.111619 -190.875314 
L 225.283589 -193.306183 
L 228.455559 -195.780845 
L 231.62753 -198.017819 
L 234.7995 -200.317227 
L 237.97147 -202.500521 
L 241.143441 -204.919343 
L 244.315411 -207.383673 
L 247.487381 -209.818606 
L 250.659351 -212.050447 
L 253.831322 -214.391626 
L 257.003292 -216.572774 
L 260.175262 -218.831071 
L 263.347233 -221.107836 
L 266.519203 -223.145748 
L 269.691173 -225.326959 
L 272.863144 -227.504407 
L 276.035114 -229.592157 
L 279.207084 -231.686785 
L 282.379055 -233.712461 
L 285.551025 -235.802836 
L 288.722995 -237.768723 
L 291.894966 -239.622595 
L 295.066936 -241.627286 
L 298.238906 -243.496133 
L 301.410877 -245.196863 
L 304.582847 -246.996885 
L 307.754817 -248.695778 
L 310.926788 -250.42695 
L 314.098758 -252.168267 
L 317.270728 -253.794025 
L 320.442698 -255.462529 
L 323.614669 -257.158999 
L 326.786639 -258.863048 
L 329.958609 -260.529267 
L 333.13058 -262.20533 
L 336.30255 -263.817643 
L 339.47452 -265.434052 
L 342.646491 -266.980854 
L 345.818461 -268.470342 
L 348.990431 -269.943454 
L 352.162402 -271.396269 
L 355.334372 -272.928906 
L 358.506342 -274.421195 
L 361.678313 -275.915261 
L 364.850283 -277.408565 
L 368.022253 -278.896061 
L 371.194224 -280.38461 
L 374.366194 -281.873159 
L 377.538164 -283.364381 
L 380.710135 -284.873141 
L 383.882105 -286.366056 
L 387.054075 -287.858971 
L 390.226045 -289.414467 
L 393.398016 -291.022109 
L 396.569986 -292.587125 
L 399.741956 -294.112294 
L 402.913927 -295.581935 
L 406.085897 -297.050522 
L 409.257867 -298.519108 
L 412.429838 -299.987694 
L 415.601808 -301.456281 
L 418.773778 -302.925729 
L 421.945749 -304.395759 
L 425.117719 -305.865788 
L 428.289689 -307.337377 
L 431.46166 -308.916907 
L 434.63363 -310.521044 
L 437.8056 -312.125181 
L 440.977571 -313.729317 
L 444.149541 -315.295445 
L 447.321511 -316.810682 
L 450.493482 -318.325919 
L 453.665452 -319.841156 
L 456.837422 -321.356392 
L 460.009393 -322.88521 
L 463.181363 -324.43963 
L 466.353333 -325.979803 
L 469.525303 -327.45535 
L 472.697274 -328.927913 
L 475.869244 -330.404753 
L 479.041214 -331.878789 
L 482.213185 -333.352825 
L 485.385155 -334.826862 
L 488.557125 -336.301722 
L 491.729096 -337.778248 
L 494.901066 -339.327361 
L 498.073036 -340.878716 
L 501.245007 -342.430072 
L 504.416977 -343.981428 
L 507.588947 -345.532783 
L 510.760918 -347.084139 
L 513.932888 -348.600958 
L 513.932888 -409.839349 
L 513.932888 -409.839349 
L 510.760918 -407.482661 
L 507.588947 -405.125972 
L 504.416977 -402.769283 
L 501.245007 -400.412595 
L 498.073036 -398.055906 
L 494.901066 -395.699217 
L 491.729096 -393.342529 
L 488.557125 -390.98584 
L 485.385155 -388.629151 
L 482.213185 -386.272463 
L 479.041214 -383.944887 
L 475.869244 -381.590356 
L 472.697274 -379.235824 
L 469.525303 -376.881293 
L 466.353333 -374.524794 
L 463.181363 -372.168033 
L 460.009393 -369.811271 
L 456.837422 -367.45451 
L 453.665452 -365.097749 
L 450.493482 -362.740988 
L 447.321511 -360.408282 
L 444.149541 -358.091254 
L 440.977571 -355.774227 
L 437.8056 -353.421637 
L 434.63363 -351.05199 
L 431.46166 -348.682343 
L 428.289689 -346.312696 
L 425.117719 -343.942735 
L 421.945749 -341.571967 
L 418.773778 -339.2012 
L 415.601808 -336.845545 
L 412.429838 -334.553654 
L 409.257867 -332.117415 
L 406.085897 -329.752997 
L 402.913927 -327.397581 
L 399.741956 -325.041084 
L 396.569986 -322.684587 
L 393.398016 -320.325556 
L 390.226045 -317.965929 
L 387.054075 -315.571803 
L 383.882105 -313.218441 
L 380.710135 -310.882516 
L 377.538164 -308.539874 
L 374.366194 -306.184004 
L 371.194224 -303.844873 
L 368.022253 -301.527295 
L 364.850283 -299.205285 
L 361.678313 -296.870342 
L 358.506342 -294.535399 
L 355.334372 -292.200313 
L 352.162402 -289.864286 
L 348.990431 -287.532279 
L 345.818461 -285.193134 
L 342.646491 -282.812059 
L 339.47452 -280.523986 
L 336.30255 -278.129117 
L 333.13058 -275.790699 
L 329.958609 -273.515993 
L 326.786639 -271.271519 
L 323.614669 -269.017048 
L 320.442698 -266.771096 
L 317.270728 -264.512628 
L 314.098758 -262.371784 
L 310.926788 -260.309766 
L 307.754817 -258.247625 
L 304.582847 -255.963786 
L 301.410877 -253.717455 
L 298.238906 -251.763345 
L 295.066936 -249.867878 
L 291.894966 -247.957805 
L 288.722995 -246.045031 
L 285.551025 -244.244671 
L 282.379055 -242.457901 
L 279.207084 -240.527029 
L 276.035114 -238.757994 
L 272.863144 -236.919085 
L 269.691173 -235.29751 
L 266.519203 -233.748556 
L 263.347233 -232.063754 
L 260.175262 -230.472068 
L 257.003292 -228.883482 
L 253.831322 -227.214829 
L 250.659351 -225.713097 
L 247.487381 -224.193901 
L 244.315411 -222.684761 
L 241.143441 -221.145642 
L 237.97147 -219.559009 
L 234.7995 -218.04255 
L 231.62753 -216.537235 
L 228.455559 -215.084352 
L 225.283589 -213.546156 
L 222.111619 -212.035245 
L 218.939648 -210.468516 
L 215.767678 -208.899926 
L 212.595708 -207.332352 
L 209.423737 -205.788863 
L 206.251767 -204.336905 
L 203.079797 -202.882789 
L 199.907826 -201.331025 
z
" id="m44cbcba625" style="stroke:#ffffff;stroke-opacity:0.15;"/>
    </defs>
    <g clip-path="url(#pa8cda2e46a)">
     <use style="fill:#ffa500;fill-opacity:0.15;stroke:#ffffff;stroke-opacity:0.15;" x="0" xlink:href="#m44cbcba625" y="720"/>
    </g>
   </g>
   <g id="line2d_14">
    <path clip-path="url(#pa8cda2e46a)" d="M 199.907826 532.163451 
L 203.079797 530.240387 
L 206.251767 528.317322 
L 209.423737 526.394257 
L 212.595708 524.471192 
L 215.767678 522.548127 
L 218.939648 520.625063 
L 222.111619 518.701998 
L 225.283589 516.778933 
L 228.455559 514.855868 
L 231.62753 512.932803 
L 234.7995 511.009739 
L 237.97147 509.086674 
L 241.143441 507.163609 
L 244.315411 505.240544 
L 247.487381 503.317479 
L 250.659351 501.394415 
L 253.831322 499.47135 
L 257.003292 497.548285 
L 260.175262 495.62522 
L 263.347233 493.702156 
L 266.519203 491.779091 
L 269.691173 489.856026 
L 272.863144 487.932961 
L 276.035114 486.009896 
L 279.207084 484.086832 
L 282.379055 482.163767 
L 285.551025 480.240702 
L 288.722995 478.317637 
L 291.894966 476.394572 
L 295.066936 474.471508 
L 298.238906 472.548443 
L 301.410877 470.625378 
L 304.582847 468.702313 
L 307.754817 466.779249 
L 310.926788 464.856184 
L 314.098758 462.933119 
L 317.270728 461.010054 
L 320.442698 459.086989 
L 323.614669 457.163925 
L 326.786639 455.24086 
L 329.958609 453.317795 
L 333.13058 451.39473 
L 336.30255 449.471665 
L 339.47452 447.548601 
L 342.646491 445.625536 
L 345.818461 443.702471 
L 348.990431 441.779406 
L 352.162402 439.856341 
L 355.334372 437.933277 
L 358.506342 436.010212 
L 361.678313 434.087147 
L 364.850283 432.164082 
L 368.022253 430.241018 
L 371.194224 428.317953 
L 374.366194 426.394888 
L 377.538164 424.471823 
L 380.710135 422.548758 
L 383.882105 420.625694 
L 387.054075 418.702629 
L 390.226045 416.779564 
L 393.398016 414.856499 
L 396.569986 412.933434 
L 399.741956 411.01037 
L 402.913927 409.087305 
L 406.085897 407.16424 
L 409.257867 405.241175 
L 412.429838 403.318111 
L 415.601808 401.395046 
L 418.773778 399.471981 
L 421.945749 397.548916 
L 425.117719 395.625851 
L 428.289689 393.702787 
L 431.46166 391.779722 
L 434.63363 389.856657 
L 437.8056 387.933592 
L 440.977571 386.010527 
L 444.149541 384.087463 
L 447.321511 382.164398 
L 450.493482 380.241333 
L 453.665452 378.318268 
L 456.837422 376.395203 
L 460.009393 374.472139 
L 463.181363 372.549074 
L 466.353333 370.626009 
L 469.525303 368.702944 
L 472.697274 366.77988 
L 475.869244 364.856815 
L 479.041214 362.93375 
L 482.213185 361.010685 
L 485.385155 359.08762 
L 488.557125 357.164556 
L 491.729096 355.241491 
L 494.901066 353.318426 
L 498.073036 351.395361 
L 501.245007 349.472296 
L 504.416977 347.549232 
L 507.588947 345.626167 
L 510.760918 343.703102 
L 513.932888 341.780037 
" style="fill:none;stroke:#ffa500;stroke-linecap:round;stroke-width:2.25;"/>
   </g>
   <g id="patch_3">
    <path d="M 123.025 609.657292 
L 123.025 131.358393 
" style="fill:none;stroke:#ffffff;stroke-linecap:square;stroke-linejoin:miter;stroke-width:1.25;"/>
   </g>
   <g id="patch_4">
    <path d="M 123.025 609.657292 
L 590.815714 609.657292 
" style="fill:none;stroke:#ffffff;stroke-linecap:square;stroke-linejoin:miter;stroke-width:1.25;"/>
   </g>
  </g>
  <g id="axes_2">
   <g id="patch_5">
    <path d="M 123.025 114.865327 
L 590.815714 114.865327 
L 590.815714 32.4 
L 123.025 32.4 
z
" style="fill:#eaeaf2;"/>
   </g>
   <g id="matplotlib.axis_3">
    <g id="xtick_8">
     <g id="line2d_15">
      <path clip-path="url(#p2e52550e43)" d="M 179.713923 114.865327 
L 179.713923 32.4 
" style="fill:none;stroke:#ffffff;stroke-linecap:round;"/>
     </g>
    </g>
    <g id="xtick_9">
     <g id="line2d_16">
      <path clip-path="url(#p2e52550e43)" d="M 245.492109 114.865327 
L 245.492109 32.4 
" style="fill:none;stroke:#ffffff;stroke-linecap:round;"/>
     </g>
    </g>
    <g id="xtick_10">
     <g id="line2d_17">
      <path clip-path="url(#p2e52550e43)" d="M 311.270296 114.865327 
L 311.270296 32.4 
" style="fill:none;stroke:#ffffff;stroke-linecap:round;"/>
     </g>
    </g>
    <g id="xtick_11">
     <g id="line2d_18">
      <path clip-path="url(#p2e52550e43)" d="M 377.048482 114.865327 
L 377.048482 32.4 
" style="fill:none;stroke:#ffffff;stroke-linecap:round;"/>
     </g>
    </g>
    <g id="xtick_12">
     <g id="line2d_19">
      <path clip-path="url(#p2e52550e43)" d="M 442.826668 114.865327 
L 442.826668 32.4 
" style="fill:none;stroke:#ffffff;stroke-linecap:round;"/>
     </g>
    </g>
    <g id="xtick_13">
     <g id="line2d_20">
      <path clip-path="url(#p2e52550e43)" d="M 508.604855 114.865327 
L 508.604855 32.4 
" style="fill:none;stroke:#ffffff;stroke-linecap:round;"/>
     </g>
    </g>
    <g id="xtick_14">
     <g id="line2d_21">
      <path clip-path="url(#p2e52550e43)" d="M 574.383041 114.865327 
L 574.383041 32.4 
" style="fill:none;stroke:#ffffff;stroke-linecap:round;"/>
     </g>
    </g>
   </g>
   <g id="matplotlib.axis_4">
    <g id="ytick_7"/>
    <g id="ytick_8"/>
    <g id="ytick_9"/>
   </g>
   <g id="patch_6">
    <path clip-path="url(#p2e52550e43)" d="M 199.907826 114.865327 
L 222.338188 114.865327 
L 222.338188 111.592894 
L 199.907826 111.592894 
z
" style="fill:#ffa500;opacity:0.4;stroke:#ffffff;stroke-linejoin:miter;"/>
   </g>
   <g id="patch_7">
    <path clip-path="url(#p2e52550e43)" d="M 222.338188 114.865327 
L 244.768549 114.865327 
L 244.768549 91.958292 
L 222.338188 91.958292 
z
" style="fill:#ffa500;opacity:0.4;stroke:#ffffff;stroke-linejoin:miter;"/>
   </g>
   <g id="patch_8">
    <path clip-path="url(#p2e52550e43)" d="M 244.768549 114.865327 
L 267.198911 114.865327 
L 267.198911 41.235571 
L 244.768549 41.235571 
z
" style="fill:#ffa500;opacity:0.4;stroke:#ffffff;stroke-linejoin:miter;"/>
   </g>
   <g id="patch_9">
    <path clip-path="url(#p2e52550e43)" d="M 267.198911 114.865327 
L 289.629273 114.865327 
L 289.629273 36.32692 
L 267.198911 36.32692 
z
" style="fill:#ffa500;opacity:0.4;stroke:#ffffff;stroke-linejoin:miter;"/>
   </g>
   <g id="patch_10">
    <path clip-path="url(#p2e52550e43)" d="M 289.629273 114.865327 
L 312.059634 114.865327 
L 312.059634 51.052872 
L 289.629273 51.052872 
z
" style="fill:#ffa500;opacity:0.4;stroke:#ffffff;stroke-linejoin:miter;"/>
   </g>
   <g id="patch_11">
    <path clip-path="url(#p2e52550e43)" d="M 312.059634 114.865327 
L 334.489996 114.865327 
L 334.489996 65.778823 
L 312.059634 65.778823 
z
" style="fill:#ffa500;opacity:0.4;stroke:#ffffff;stroke-linejoin:miter;"/>
   </g>
   <g id="patch_12">
    <path clip-path="url(#p2e52550e43)" d="M 334.489996 114.865327 
L 356.920357 114.865327 
L 356.920357 80.504774 
L 334.489996 80.504774 
z
" style="fill:#ffa500;opacity:0.4;stroke:#ffffff;stroke-linejoin:miter;"/>
   </g>
   <g id="patch_13">
    <path clip-path="url(#p2e52550e43)" d="M 356.920357 114.865327 
L 379.350719 114.865327 
L 379.350719 90.322075 
L 356.920357 90.322075 
z
" style="fill:#ffa500;opacity:0.4;stroke:#ffffff;stroke-linejoin:miter;"/>
   </g>
   <g id="patch_14">
    <path clip-path="url(#p2e52550e43)" d="M 379.350719 114.865327 
L 401.78108 114.865327 
L 401.78108 100.139376 
L 379.350719 100.139376 
z
" style="fill:#ffa500;opacity:0.4;stroke:#ffffff;stroke-linejoin:miter;"/>
   </g>
   <g id="patch_15">
    <path clip-path="url(#p2e52550e43)" d="M 401.78108 114.865327 
L 424.211442 114.865327 
L 424.211442 103.41181 
L 401.78108 103.41181 
z
" style="fill:#ffa500;opacity:0.4;stroke:#ffffff;stroke-linejoin:miter;"/>
   </g>
   <g id="patch_16">
    <path clip-path="url(#p2e52550e43)" d="M 424.211442 114.865327 
L 446.641803 114.865327 
L 446.641803 105.048027 
L 424.211442 105.048027 
z
" style="fill:#ffa500;opacity:0.4;stroke:#ffffff;stroke-linejoin:miter;"/>
   </g>
   <g id="patch_17">
    <path clip-path="url(#p2e52550e43)" d="M 446.641803 114.865327 
L 469.072165 114.865327 
L 469.072165 111.592894 
L 446.641803 111.592894 
z
" style="fill:#ffa500;opacity:0.4;stroke:#ffffff;stroke-linejoin:miter;"/>
   </g>
   <g id="patch_18">
    <path clip-path="url(#p2e52550e43)" d="M 469.072165 114.865327 
L 491.502526 114.865327 
L 491.502526 111.592894 
L 469.072165 111.592894 
z
" style="fill:#ffa500;opacity:0.4;stroke:#ffffff;stroke-linejoin:miter;"/>
   </g>
   <g id="patch_19">
    <path clip-path="url(#p2e52550e43)" d="M 491.502526 114.865327 
L 513.932888 114.865327 
L 513.932888 108.32046 
L 491.502526 108.32046 
z
" style="fill:#ffa500;opacity:0.4;stroke:#ffffff;stroke-linejoin:miter;"/>
   </g>
   <g id="line2d_22">
    <path clip-path="url(#p2e52550e43)" d="M 144.288214 114.849264 
L 161.030903 114.759299 
L 171.076516 114.542632 
L 177.773591 114.248539 
L 184.470666 113.747382 
L 191.167742 112.908255 
L 194.51628 112.300075 
L 197.864817 111.521965 
L 201.213355 110.534448 
L 204.561893 109.294845 
L 207.91043 107.759983 
L 211.258968 105.889766 
L 214.607506 103.651311 
L 217.956043 101.023232 
L 221.304581 97.999545 
L 224.653119 94.592687 
L 228.001656 90.835173 
L 231.350194 86.779556 
L 238.047269 78.071144 
L 244.744345 69.173478 
L 248.092882 64.892264 
L 251.44142 60.838645 
L 254.789958 57.083562 
L 258.138496 53.681984 
L 261.487033 50.672898 
L 264.835571 48.081468 
L 268.184109 45.922724 
L 271.532646 44.205805 
L 274.881184 42.937633 
L 278.229722 42.125003 
L 281.578259 41.774538 
L 284.926797 41.890487 
L 288.275335 42.471013 
L 291.623872 43.504011 
L 294.97241 44.963689 
L 298.320948 46.808932 
L 301.669485 48.984005 
L 305.018023 51.421583 
L 311.715098 56.786608 
L 321.760711 65.022733 
L 328.457787 70.07199 
L 331.806325 72.395986 
L 338.5034 76.636926 
L 345.200475 80.391214 
L 351.897551 83.739322 
L 358.594626 86.740353 
L 365.291701 89.432893 
L 371.988777 91.854524 
L 378.685852 94.051039 
L 388.731465 97.027576 
L 398.777078 99.735654 
L 408.822691 102.219248 
L 415.519767 103.702298 
L 422.216842 104.98628 
L 428.913917 106.049155 
L 438.95953 107.31929 
L 452.353681 108.747927 
L 462.399294 109.651741 
L 469.09637 110.092692 
L 479.141983 110.479962 
L 495.884671 110.941172 
L 502.581746 111.321665 
L 512.627359 112.179907 
L 529.370048 113.750586 
L 539.415661 114.368421 
L 549.461274 114.688615 
L 562.855425 114.83305 
L 569.5525 114.84888 
L 569.5525 114.84888 
" style="fill:none;stroke:#ffa500;stroke-linecap:round;stroke-width:1.5;"/>
   </g>
   <g id="patch_20">
    <path d="M 123.025 114.865327 
L 590.815714 114.865327 
" style="fill:none;stroke:#ffffff;stroke-linecap:square;stroke-linejoin:miter;stroke-width:1.25;"/>
   </g>
  </g>
  <g id="axes_3">
   <g id="patch_21">
    <path d="M 606.946429 609.657292 
L 687.6 609.657292 
L 687.6 131.358393 
L 606.946429 131.358393 
z
" style="fill:#eaeaf2;"/>
   </g>
   <g id="matplotlib.axis_5">
    <g id="xtick_15"/>
    <g id="xtick_16"/>
   </g>
   <g id="matplotlib.axis_6">
    <g id="ytick_10">
     <g id="line2d_23">
      <path clip-path="url(#p44a2802458)" d="M 606.946429 579.35025 
L 687.6 579.35025 
" style="fill:none;stroke:#ffffff;stroke-linecap:round;"/>
     </g>
    </g>
    <g id="ytick_11">
     <g id="line2d_24">
      <path clip-path="url(#p44a2802458)" d="M 606.946429 503.407556 
L 687.6 503.407556 
" style="fill:none;stroke:#ffffff;stroke-linecap:round;"/>
     </g>
    </g>
    <g id="ytick_12">
     <g id="line2d_25">
      <path clip-path="url(#p44a2802458)" d="M 606.946429 427.464862 
L 687.6 427.464862 
" style="fill:none;stroke:#ffffff;stroke-linecap:round;"/>
     </g>
    </g>
    <g id="ytick_13">
     <g id="line2d_26">
      <path clip-path="url(#p44a2802458)" d="M 606.946429 351.522169 
L 687.6 351.522169 
" style="fill:none;stroke:#ffffff;stroke-linecap:round;"/>
     </g>
    </g>
    <g id="ytick_14">
     <g id="line2d_27">
      <path clip-path="url(#p44a2802458)" d="M 606.946429 275.579475 
L 687.6 275.579475 
" style="fill:none;stroke:#ffffff;stroke-linecap:round;"/>
     </g>
    </g>
    <g id="ytick_15">
     <g id="line2d_28">
      <path clip-path="url(#p44a2802458)" d="M 606.946429 199.636782 
L 687.6 199.636782 
" style="fill:none;stroke:#ffffff;stroke-linecap:round;"/>
     </g>
    </g>
   </g>
   <g id="patch_22">
    <path clip-path="url(#p44a2802458)" d="M 606.946429 541.378903 
L 631.584537 541.378903 
L 631.584537 522.393229 
L 606.946429 522.393229 
z
" style="fill:#ffa500;opacity:0.4;stroke:#ffffff;stroke-linejoin:miter;"/>
   </g>
   <g id="patch_23">
    <path clip-path="url(#p44a2802458)" d="M 606.946429 522.393229 
L 647.526842 522.393229 
L 647.526842 503.407556 
L 606.946429 503.407556 
z
" style="fill:#ffa500;opacity:0.4;stroke:#ffffff;stroke-linejoin:miter;"/>
   </g>
   <g id="patch_24">
    <path clip-path="url(#p44a2802458)" d="M 606.946429 503.407556 
L 683.759354 503.407556 
L 683.759354 484.421883 
L 606.946429 484.421883 
z
" style="fill:#ffa500;opacity:0.4;stroke:#ffffff;stroke-linejoin:miter;"/>
   </g>
   <g id="patch_25">
    <path clip-path="url(#p44a2802458)" d="M 606.946429 484.421883 
L 643.17894 484.421883 
L 643.17894 465.436209 
L 606.946429 465.436209 
z
" style="fill:#ffa500;opacity:0.4;stroke:#ffffff;stroke-linejoin:miter;"/>
   </g>
   <g id="patch_26">
    <path clip-path="url(#p44a2802458)" d="M 606.946429 465.436209 
L 677.962152 465.436209 
L 677.962152 446.450536 
L 606.946429 446.450536 
z
" style="fill:#ffa500;opacity:0.4;stroke:#ffffff;stroke-linejoin:miter;"/>
   </g>
   <g id="patch_27">
    <path clip-path="url(#p44a2802458)" d="M 606.946429 446.450536 
L 634.483138 446.450536 
L 634.483138 427.464862 
L 606.946429 427.464862 
z
" style="fill:#ffa500;opacity:0.4;stroke:#ffffff;stroke-linejoin:miter;"/>
   </g>
   <g id="patch_28">
    <path clip-path="url(#p44a2802458)" d="M 606.946429 427.464862 
L 637.381739 427.464862 
L 637.381739 408.479189 
L 606.946429 408.479189 
z
" style="fill:#ffa500;opacity:0.4;stroke:#ffffff;stroke-linejoin:miter;"/>
   </g>
   <g id="patch_29">
    <path clip-path="url(#p44a2802458)" d="M 606.946429 408.479189 
L 612.74363 408.479189 
L 612.74363 389.493516 
L 606.946429 389.493516 
z
" style="fill:#ffa500;opacity:0.4;stroke:#ffffff;stroke-linejoin:miter;"/>
   </g>
   <g id="patch_30">
    <path clip-path="url(#p44a2802458)" d="M 606.946429 389.493516 
L 630.135236 389.493516 
L 630.135236 370.507842 
L 606.946429 370.507842 
z
" style="fill:#ffa500;opacity:0.4;stroke:#ffffff;stroke-linejoin:miter;"/>
   </g>
   <g id="patch_31">
    <path clip-path="url(#p44a2802458)" d="M 606.946429 370.507842 
L 612.74363 370.507842 
L 612.74363 351.522169 
L 606.946429 351.522169 
z
" style="fill:#ffa500;opacity:0.4;stroke:#ffffff;stroke-linejoin:miter;"/>
   </g>
   <g id="patch_32">
    <path clip-path="url(#p44a2802458)" d="M 606.946429 351.522169 
L 608.395729 351.522169 
L 608.395729 332.536495 
L 606.946429 332.536495 
z
" style="fill:#ffa500;opacity:0.4;stroke:#ffffff;stroke-linejoin:miter;"/>
   </g>
   <g id="patch_33">
    <path clip-path="url(#p44a2802458)" d="M 606.946429 332.536495 
L 612.74363 332.536495 
L 612.74363 313.550822 
L 606.946429 313.550822 
z
" style="fill:#ffa500;opacity:0.4;stroke:#ffffff;stroke-linejoin:miter;"/>
   </g>
   <g id="patch_34">
    <path clip-path="url(#p44a2802458)" d="M 606.946429 313.550822 
L 606.946429 313.550822 
L 606.946429 294.565149 
L 606.946429 294.565149 
z
" style="fill:#ffa500;opacity:0.4;stroke:#ffffff;stroke-linejoin:miter;"/>
   </g>
   <g id="patch_35">
    <path clip-path="url(#p44a2802458)" d="M 606.946429 294.565149 
L 608.395729 294.565149 
L 608.395729 275.579475 
L 606.946429 275.579475 
z
" style="fill:#ffa500;opacity:0.4;stroke:#ffffff;stroke-linejoin:miter;"/>
   </g>
   <g id="patch_36">
    <path clip-path="url(#p44a2802458)" d="M 606.946429 275.579475 
L 606.946429 275.579475 
L 606.946429 256.593802 
L 606.946429 256.593802 
z
" style="fill:#ffa500;opacity:0.4;stroke:#ffffff;stroke-linejoin:miter;"/>
   </g>
   <g id="patch_37">
    <path clip-path="url(#p44a2802458)" d="M 606.946429 256.593802 
L 606.946429 256.593802 
L 606.946429 237.608128 
L 606.946429 237.608128 
z
" style="fill:#ffa500;opacity:0.4;stroke:#ffffff;stroke-linejoin:miter;"/>
   </g>
   <g id="patch_38">
    <path clip-path="url(#p44a2802458)" d="M 606.946429 237.608128 
L 608.395729 237.608128 
L 608.395729 218.622455 
L 606.946429 218.622455 
z
" style="fill:#ffa500;opacity:0.4;stroke:#ffffff;stroke-linejoin:miter;"/>
   </g>
   <g id="patch_39">
    <path clip-path="url(#p44a2802458)" d="M 606.946429 218.622455 
L 608.395729 218.622455 
L 608.395729 199.636782 
L 606.946429 199.636782 
z
" style="fill:#ffa500;opacity:0.4;stroke:#ffffff;stroke-linejoin:miter;"/>
   </g>
   <g id="line2d_29">
    <path clip-path="url(#p44a2802458)" d="M 607.005559 587.916433 
L 607.143435 581.068918 
L 607.540047 574.221403 
L 607.91903 570.797646 
L 608.480649 567.373889 
L 609.27984 563.950131 
L 610.37402 560.526374 
L 611.818351 557.102617 
L 613.660722 553.678859 
L 615.937212 550.255102 
L 618.668635 546.831345 
L 621.858286 543.407587 
L 625.490515 539.98383 
L 629.529311 536.560073 
L 633.915942 533.136315 
L 643.359651 526.288801 
L 648.146796 522.865043 
L 652.737735 519.441286 
L 656.916573 516.017529 
L 660.460773 512.593771 
L 663.17319 509.170014 
L 664.920397 505.746257 
L 665.667479 502.322499 
L 665.497693 498.898742 
L 664.607905 495.474985 
L 663.277227 492.051227 
L 661.814511 488.62747 
L 660.497171 485.203713 
L 659.516778 481.779955 
L 658.945047 478.356198 
L 658.728112 474.932441 
L 658.673577 468.084926 
L 658.40098 464.661169 
L 657.71638 461.237411 
L 656.523006 457.813654 
L 654.813808 454.389897 
L 652.660406 450.966139 
L 650.185445 447.542382 
L 637.002339 430.423596 
L 632.286458 423.576081 
L 630.130601 420.152324 
L 628.177229 416.728566 
L 626.494219 413.304809 
L 625.139811 409.881052 
L 624.139421 406.457294 
L 623.468753 403.033537 
L 623.049903 399.60978 
L 622.470891 392.762265 
L 622.049292 389.338508 
L 621.414236 385.91475 
L 620.537993 382.490993 
L 619.449867 379.067236 
L 614.616437 365.372206 
L 613.667299 361.948449 
L 612.890538 358.524692 
L 612.277865 355.100934 
L 611.808464 351.677177 
L 611.194018 344.829662 
L 609.741873 320.863361 
L 608.541148 307.168332 
L 608.150373 300.320817 
L 607.714379 286.625788 
L 607.298673 269.507001 
L 607.300936 259.235729 
L 607.686736 231.84567 
L 607.648443 211.303126 
L 607.668226 197.608097 
L 607.371766 183.913068 
L 607.067025 170.218039 
L 606.97518 156.523009 
L 606.982078 153.099252 
L 606.982078 153.099252 
" style="fill:none;stroke:#ffa500;stroke-linecap:round;stroke-width:1.5;"/>
   </g>
   <g id="patch_40">
    <path d="M 606.946429 609.657292 
L 606.946429 131.358393 
" style="fill:none;stroke:#ffffff;stroke-linecap:square;stroke-linejoin:miter;stroke-width:1.25;"/>
   </g>
  </g>
 </g>
 <defs>
  <clipPath id="pa8cda2e46a">
   <rect height="478.298899" width="467.790714" x="123.025" y="131.358393"/>
  </clipPath>
  <clipPath id="p2e52550e43">
   <rect height="82.465327" width="467.790714" x="123.025" y="32.4"/>
  </clipPath>
  <clipPath id="p44a2802458">
   <rect height="478.298899" width="80.653571" x="606.946429" y="131.358393"/>
  </clipPath>
 </defs>
</svg>
